M48
INCH,TZ
T1C0.016
T2C0.040
T3C0.051
T4C0.126
%
G90
G05
T1
X54449Y-43819
X62756Y-43780
X69528Y-49724
X69961Y-47992
X71024Y-43819
X72481Y-49381
X73681Y-50481
T2
X52650Y-48550
X52650Y-49550
X53650Y-48550
X53650Y-49550
X54571Y-39626
X54571Y-44626
X54650Y-48550
X54650Y-49550
X55571Y-39626
X55571Y-44626
X55650Y-48550
X55650Y-49550
X56571Y-39626
X56571Y-44626
X56614Y-38425
X56650Y-48550
X56650Y-49550
X57571Y-39626
X57571Y-44626
X57614Y-38425
X57858Y-41134
X57858Y-42134
X58571Y-39626
X58571Y-44626
X58614Y-38425
X58858Y-41134
X58858Y-42134
X59571Y-39626
X59571Y-44626
X59614Y-38425
X59850Y-48550
X59850Y-49550
X59858Y-41134
X59858Y-42134
X60571Y-39626
X60571Y-44626
X60850Y-48550
X60850Y-49550
X61571Y-39626
X61571Y-44626
X61850Y-48550
X61850Y-49550
X62839Y-39626
X62839Y-44626
X62850Y-48550
X62850Y-49550
X63839Y-39626
X63839Y-44626
X64839Y-39626
X64839Y-44626
X64882Y-38425
X65839Y-39626
X65839Y-44626
X65882Y-38425
X65931Y-47081
X65931Y-48081
X65931Y-49081
X65950Y-50250
X66126Y-41134
X66126Y-42134
X66839Y-39626
X66839Y-44626
X66882Y-38425
X66931Y-47081
X66931Y-48081
X66931Y-49081
X66950Y-50250
X67126Y-41134
X67126Y-42134
X67839Y-39626
X67839Y-44626
X67882Y-38425
X67931Y-47081
X67931Y-48081
X67931Y-49081
X67950Y-50250
X68126Y-41134
X68126Y-42134
X68839Y-39626
X68839Y-44626
X68931Y-47081
X68931Y-48081
X68931Y-49081
X68950Y-50250
X69839Y-39626
X69839Y-44626
X71106Y-39626
X71106Y-44626
X72106Y-39626
X72106Y-44626
X73106Y-39626
X73106Y-44626
X73150Y-38425
X74106Y-39626
X74106Y-44626
X74150Y-38425
X74213Y-47343
X74213Y-48343
X74394Y-41134
X74394Y-42134
X75106Y-39626
X75106Y-44626
X75150Y-38425
X75394Y-41134
X75394Y-42134
X75394Y-47343
X75394Y-48343
X76106Y-39626
X76106Y-44626
X76150Y-38425
X76394Y-41134
X76394Y-42134
X77106Y-39626
X77106Y-44626
X78106Y-39626
X78106Y-44626
T3
X81201Y-42224
X81201Y-44193
T4
X52756Y-38976
X81102Y-38976
T0
M30
