G04 #@! TF.FileFunction,Legend,Top*
%FSLAX46Y46*%
G04 Gerber Fmt 4.6, Leading zero omitted, Abs format (unit mm)*
G04 Created by KiCad (PCBNEW 4.0.2-stable) date 10/3/2017 10:25:22 PM*
%MOMM*%
G01*
G04 APERTURE LIST*
%ADD10C,0.100000*%
%ADD11C,0.300000*%
%ADD12C,0.101600*%
%ADD13C,0.254000*%
%ADD14C,0.119380*%
%ADD15C,0.152400*%
%ADD16C,0.150000*%
%ADD17C,0.127000*%
%ADD18C,0.120000*%
%ADD19C,0.203200*%
%ADD20C,0.381000*%
%ADD21C,0.162560*%
G04 APERTURE END LIST*
D10*
D11*
X202607143Y-107821428D02*
X202607143Y-106678571D01*
X203178571Y-107250000D02*
X202035714Y-107250000D01*
D12*
X200313500Y-107588666D02*
X200313500Y-106911333D01*
X200652167Y-107250000D02*
X199974833Y-107250000D01*
X200236833Y-112838666D02*
X200236833Y-112161333D01*
X135736167Y-113570433D02*
X135312833Y-113866767D01*
X135736167Y-114078433D02*
X134847167Y-114078433D01*
X134847167Y-113739767D01*
X134889500Y-113655100D01*
X134931833Y-113612767D01*
X135016500Y-113570433D01*
X135143500Y-113570433D01*
X135228167Y-113612767D01*
X135270500Y-113655100D01*
X135312833Y-113739767D01*
X135312833Y-114078433D01*
X135693833Y-112850767D02*
X135736167Y-112935433D01*
X135736167Y-113104767D01*
X135693833Y-113189433D01*
X135609167Y-113231767D01*
X135270500Y-113231767D01*
X135185833Y-113189433D01*
X135143500Y-113104767D01*
X135143500Y-112935433D01*
X135185833Y-112850767D01*
X135270500Y-112808433D01*
X135355167Y-112808433D01*
X135439833Y-113231767D01*
X135143500Y-112512100D02*
X135736167Y-112300433D01*
X135143500Y-112088767D01*
X135736167Y-111284434D02*
X135736167Y-111792434D01*
X135736167Y-111538434D02*
X134847167Y-111538434D01*
X134974167Y-111623100D01*
X135058833Y-111707767D01*
X135101167Y-111792434D01*
X135651500Y-110903433D02*
X135693833Y-110861100D01*
X135736167Y-110903433D01*
X135693833Y-110945767D01*
X135651500Y-110903433D01*
X135736167Y-110903433D01*
X134847167Y-110310767D02*
X134847167Y-110226100D01*
X134889500Y-110141434D01*
X134931833Y-110099100D01*
X135016500Y-110056767D01*
X135185833Y-110014434D01*
X135397500Y-110014434D01*
X135566833Y-110056767D01*
X135651500Y-110099100D01*
X135693833Y-110141434D01*
X135736167Y-110226100D01*
X135736167Y-110310767D01*
X135693833Y-110395434D01*
X135651500Y-110437767D01*
X135566833Y-110480100D01*
X135397500Y-110522434D01*
X135185833Y-110522434D01*
X135016500Y-110480100D01*
X134931833Y-110437767D01*
X134889500Y-110395434D01*
X134847167Y-110310767D01*
D13*
X130911013Y-117752967D02*
X132155613Y-117338100D01*
X130911013Y-116923233D01*
X130911013Y-116271300D02*
X130911013Y-116034233D01*
X130970280Y-115915700D01*
X131088813Y-115797167D01*
X131325880Y-115737900D01*
X131740747Y-115737900D01*
X131977813Y-115797167D01*
X132096347Y-115915700D01*
X132155613Y-116034233D01*
X132155613Y-116271300D01*
X132096347Y-116389833D01*
X131977813Y-116508367D01*
X131740747Y-116567633D01*
X131325880Y-116567633D01*
X131088813Y-116508367D01*
X130970280Y-116389833D01*
X130911013Y-116271300D01*
X132155613Y-114493300D02*
X131562947Y-114908166D01*
X132155613Y-115204500D02*
X130911013Y-115204500D01*
X130911013Y-114730366D01*
X130970280Y-114611833D01*
X131029547Y-114552566D01*
X131148080Y-114493300D01*
X131325880Y-114493300D01*
X131444413Y-114552566D01*
X131503680Y-114611833D01*
X131562947Y-114730366D01*
X131562947Y-115204500D01*
X130911013Y-113722833D02*
X130911013Y-113485766D01*
X130970280Y-113367233D01*
X131088813Y-113248700D01*
X131325880Y-113189433D01*
X131740747Y-113189433D01*
X131977813Y-113248700D01*
X132096347Y-113367233D01*
X132155613Y-113485766D01*
X132155613Y-113722833D01*
X132096347Y-113841366D01*
X131977813Y-113959900D01*
X131740747Y-114019166D01*
X131325880Y-114019166D01*
X131088813Y-113959900D01*
X130970280Y-113841366D01*
X130911013Y-113722833D01*
X132155613Y-112656033D02*
X130911013Y-112656033D01*
X132155613Y-111944833D01*
X130911013Y-111944833D01*
X130911013Y-110581699D02*
X132155613Y-110166832D01*
X130911013Y-109751965D01*
X131029547Y-109396365D02*
X130970280Y-109337099D01*
X130911013Y-109218565D01*
X130911013Y-108922232D01*
X130970280Y-108803699D01*
X131029547Y-108744432D01*
X131148080Y-108685165D01*
X131266613Y-108685165D01*
X131444413Y-108744432D01*
X132155613Y-109455632D01*
X132155613Y-108685165D01*
X132037080Y-108151766D02*
X132096347Y-108092499D01*
X132155613Y-108151766D01*
X132096347Y-108211032D01*
X132037080Y-108151766D01*
X132155613Y-108151766D01*
X130911013Y-107322032D02*
X130911013Y-107203499D01*
X130970280Y-107084965D01*
X131029547Y-107025699D01*
X131148080Y-106966432D01*
X131385147Y-106907165D01*
X131681480Y-106907165D01*
X131918547Y-106966432D01*
X132037080Y-107025699D01*
X132096347Y-107084965D01*
X132155613Y-107203499D01*
X132155613Y-107322032D01*
X132096347Y-107440565D01*
X132037080Y-107499832D01*
X131918547Y-107559099D01*
X131681480Y-107618365D01*
X131385147Y-107618365D01*
X131148080Y-107559099D01*
X131029547Y-107499832D01*
X130970280Y-107440565D01*
X130911013Y-107322032D01*
X133500120Y-116745434D02*
X133500120Y-116330567D01*
X134152053Y-116152767D02*
X134152053Y-116745434D01*
X132907453Y-116745434D01*
X132907453Y-116152767D01*
X132907453Y-115737900D02*
X134152053Y-114908167D01*
X132907453Y-114908167D02*
X134152053Y-115737900D01*
X134152053Y-114434034D02*
X132907453Y-114434034D01*
X132907453Y-113959900D01*
X132966720Y-113841367D01*
X133025987Y-113782100D01*
X133144520Y-113722834D01*
X133322320Y-113722834D01*
X133440853Y-113782100D01*
X133500120Y-113841367D01*
X133559387Y-113959900D01*
X133559387Y-114434034D01*
X133796453Y-113248700D02*
X133796453Y-112656034D01*
X134152053Y-113367234D02*
X132907453Y-112952367D01*
X134152053Y-112537500D01*
X134152053Y-112122634D02*
X132907453Y-112122634D01*
X134152053Y-111411434D01*
X132907453Y-111411434D01*
X134152053Y-110818767D02*
X132907453Y-110818767D01*
X132907453Y-110522433D01*
X132966720Y-110344633D01*
X133085253Y-110226100D01*
X133203787Y-110166833D01*
X133440853Y-110107567D01*
X133618653Y-110107567D01*
X133855720Y-110166833D01*
X133974253Y-110226100D01*
X134092787Y-110344633D01*
X134152053Y-110522433D01*
X134152053Y-110818767D01*
X133500120Y-109574167D02*
X133500120Y-109159300D01*
X134152053Y-108981500D02*
X134152053Y-109574167D01*
X132907453Y-109574167D01*
X132907453Y-108981500D01*
X134152053Y-107736900D02*
X133559387Y-108151766D01*
X134152053Y-108448100D02*
X132907453Y-108448100D01*
X132907453Y-107973966D01*
X132966720Y-107855433D01*
X133025987Y-107796166D01*
X133144520Y-107736900D01*
X133322320Y-107736900D01*
X133440853Y-107796166D01*
X133500120Y-107855433D01*
X133559387Y-107973966D01*
X133559387Y-108448100D01*
D11*
X202571429Y-113071428D02*
X202571429Y-111928571D01*
D14*
X193663286Y-108700287D02*
X194425286Y-108700287D01*
X193881000Y-108954287D01*
X194425286Y-109208287D01*
X193663286Y-109208287D01*
X193699571Y-109534858D02*
X193663286Y-109643715D01*
X193663286Y-109825144D01*
X193699571Y-109897715D01*
X193735857Y-109934001D01*
X193808429Y-109970286D01*
X193881000Y-109970286D01*
X193953571Y-109934001D01*
X193989857Y-109897715D01*
X194026143Y-109825144D01*
X194062429Y-109680001D01*
X194098714Y-109607429D01*
X194135000Y-109571144D01*
X194207571Y-109534858D01*
X194280143Y-109534858D01*
X194352714Y-109571144D01*
X194389000Y-109607429D01*
X194425286Y-109680001D01*
X194425286Y-109861429D01*
X194389000Y-109970286D01*
X194425286Y-110224286D02*
X194425286Y-110696000D01*
X194135000Y-110442000D01*
X194135000Y-110550858D01*
X194098714Y-110623429D01*
X194062429Y-110659715D01*
X193989857Y-110696000D01*
X193808429Y-110696000D01*
X193735857Y-110659715D01*
X193699571Y-110623429D01*
X193663286Y-110550858D01*
X193663286Y-110333143D01*
X193699571Y-110260572D01*
X193735857Y-110224286D01*
X191123286Y-108700287D02*
X191885286Y-108700287D01*
X191341000Y-108954287D01*
X191885286Y-109208287D01*
X191123286Y-109208287D01*
X191159571Y-109534858D02*
X191123286Y-109643715D01*
X191123286Y-109825144D01*
X191159571Y-109897715D01*
X191195857Y-109934001D01*
X191268429Y-109970286D01*
X191341000Y-109970286D01*
X191413571Y-109934001D01*
X191449857Y-109897715D01*
X191486143Y-109825144D01*
X191522429Y-109680001D01*
X191558714Y-109607429D01*
X191595000Y-109571144D01*
X191667571Y-109534858D01*
X191740143Y-109534858D01*
X191812714Y-109571144D01*
X191849000Y-109607429D01*
X191885286Y-109680001D01*
X191885286Y-109861429D01*
X191849000Y-109970286D01*
X191812714Y-110260572D02*
X191849000Y-110296858D01*
X191885286Y-110369429D01*
X191885286Y-110550858D01*
X191849000Y-110623429D01*
X191812714Y-110659715D01*
X191740143Y-110696000D01*
X191667571Y-110696000D01*
X191558714Y-110659715D01*
X191123286Y-110224286D01*
X191123286Y-110696000D01*
X188583286Y-108700287D02*
X189345286Y-108700287D01*
X188801000Y-108954287D01*
X189345286Y-109208287D01*
X188583286Y-109208287D01*
X188619571Y-109534858D02*
X188583286Y-109643715D01*
X188583286Y-109825144D01*
X188619571Y-109897715D01*
X188655857Y-109934001D01*
X188728429Y-109970286D01*
X188801000Y-109970286D01*
X188873571Y-109934001D01*
X188909857Y-109897715D01*
X188946143Y-109825144D01*
X188982429Y-109680001D01*
X189018714Y-109607429D01*
X189055000Y-109571144D01*
X189127571Y-109534858D01*
X189200143Y-109534858D01*
X189272714Y-109571144D01*
X189309000Y-109607429D01*
X189345286Y-109680001D01*
X189345286Y-109861429D01*
X189309000Y-109970286D01*
X188583286Y-110696000D02*
X188583286Y-110260572D01*
X188583286Y-110478286D02*
X189345286Y-110478286D01*
X189236429Y-110405715D01*
X189163857Y-110333143D01*
X189127571Y-110260572D01*
X172581286Y-108700287D02*
X173343286Y-108700287D01*
X172799000Y-108954287D01*
X173343286Y-109208287D01*
X172581286Y-109208287D01*
X172617571Y-109534858D02*
X172581286Y-109643715D01*
X172581286Y-109825144D01*
X172617571Y-109897715D01*
X172653857Y-109934001D01*
X172726429Y-109970286D01*
X172799000Y-109970286D01*
X172871571Y-109934001D01*
X172907857Y-109897715D01*
X172944143Y-109825144D01*
X172980429Y-109680001D01*
X173016714Y-109607429D01*
X173053000Y-109571144D01*
X173125571Y-109534858D01*
X173198143Y-109534858D01*
X173270714Y-109571144D01*
X173307000Y-109607429D01*
X173343286Y-109680001D01*
X173343286Y-109861429D01*
X173307000Y-109970286D01*
X173343286Y-110224286D02*
X173343286Y-110696000D01*
X173053000Y-110442000D01*
X173053000Y-110550858D01*
X173016714Y-110623429D01*
X172980429Y-110659715D01*
X172907857Y-110696000D01*
X172726429Y-110696000D01*
X172653857Y-110659715D01*
X172617571Y-110623429D01*
X172581286Y-110550858D01*
X172581286Y-110333143D01*
X172617571Y-110260572D01*
X172653857Y-110224286D01*
X170041286Y-108700287D02*
X170803286Y-108700287D01*
X170259000Y-108954287D01*
X170803286Y-109208287D01*
X170041286Y-109208287D01*
X170077571Y-109534858D02*
X170041286Y-109643715D01*
X170041286Y-109825144D01*
X170077571Y-109897715D01*
X170113857Y-109934001D01*
X170186429Y-109970286D01*
X170259000Y-109970286D01*
X170331571Y-109934001D01*
X170367857Y-109897715D01*
X170404143Y-109825144D01*
X170440429Y-109680001D01*
X170476714Y-109607429D01*
X170513000Y-109571144D01*
X170585571Y-109534858D01*
X170658143Y-109534858D01*
X170730714Y-109571144D01*
X170767000Y-109607429D01*
X170803286Y-109680001D01*
X170803286Y-109861429D01*
X170767000Y-109970286D01*
X170730714Y-110260572D02*
X170767000Y-110296858D01*
X170803286Y-110369429D01*
X170803286Y-110550858D01*
X170767000Y-110623429D01*
X170730714Y-110659715D01*
X170658143Y-110696000D01*
X170585571Y-110696000D01*
X170476714Y-110659715D01*
X170041286Y-110224286D01*
X170041286Y-110696000D01*
X167501286Y-108700287D02*
X168263286Y-108700287D01*
X167719000Y-108954287D01*
X168263286Y-109208287D01*
X167501286Y-109208287D01*
X167537571Y-109534858D02*
X167501286Y-109643715D01*
X167501286Y-109825144D01*
X167537571Y-109897715D01*
X167573857Y-109934001D01*
X167646429Y-109970286D01*
X167719000Y-109970286D01*
X167791571Y-109934001D01*
X167827857Y-109897715D01*
X167864143Y-109825144D01*
X167900429Y-109680001D01*
X167936714Y-109607429D01*
X167973000Y-109571144D01*
X168045571Y-109534858D01*
X168118143Y-109534858D01*
X168190714Y-109571144D01*
X168227000Y-109607429D01*
X168263286Y-109680001D01*
X168263286Y-109861429D01*
X168227000Y-109970286D01*
X167501286Y-110696000D02*
X167501286Y-110260572D01*
X167501286Y-110478286D02*
X168263286Y-110478286D01*
X168154429Y-110405715D01*
X168081857Y-110333143D01*
X168045571Y-110260572D01*
X151499286Y-108700287D02*
X152261286Y-108700287D01*
X151717000Y-108954287D01*
X152261286Y-109208287D01*
X151499286Y-109208287D01*
X151535571Y-109534858D02*
X151499286Y-109643715D01*
X151499286Y-109825144D01*
X151535571Y-109897715D01*
X151571857Y-109934001D01*
X151644429Y-109970286D01*
X151717000Y-109970286D01*
X151789571Y-109934001D01*
X151825857Y-109897715D01*
X151862143Y-109825144D01*
X151898429Y-109680001D01*
X151934714Y-109607429D01*
X151971000Y-109571144D01*
X152043571Y-109534858D01*
X152116143Y-109534858D01*
X152188714Y-109571144D01*
X152225000Y-109607429D01*
X152261286Y-109680001D01*
X152261286Y-109861429D01*
X152225000Y-109970286D01*
X152261286Y-110224286D02*
X152261286Y-110696000D01*
X151971000Y-110442000D01*
X151971000Y-110550858D01*
X151934714Y-110623429D01*
X151898429Y-110659715D01*
X151825857Y-110696000D01*
X151644429Y-110696000D01*
X151571857Y-110659715D01*
X151535571Y-110623429D01*
X151499286Y-110550858D01*
X151499286Y-110333143D01*
X151535571Y-110260572D01*
X151571857Y-110224286D01*
X148959286Y-108700287D02*
X149721286Y-108700287D01*
X149177000Y-108954287D01*
X149721286Y-109208287D01*
X148959286Y-109208287D01*
X148995571Y-109534858D02*
X148959286Y-109643715D01*
X148959286Y-109825144D01*
X148995571Y-109897715D01*
X149031857Y-109934001D01*
X149104429Y-109970286D01*
X149177000Y-109970286D01*
X149249571Y-109934001D01*
X149285857Y-109897715D01*
X149322143Y-109825144D01*
X149358429Y-109680001D01*
X149394714Y-109607429D01*
X149431000Y-109571144D01*
X149503571Y-109534858D01*
X149576143Y-109534858D01*
X149648714Y-109571144D01*
X149685000Y-109607429D01*
X149721286Y-109680001D01*
X149721286Y-109861429D01*
X149685000Y-109970286D01*
X149648714Y-110260572D02*
X149685000Y-110296858D01*
X149721286Y-110369429D01*
X149721286Y-110550858D01*
X149685000Y-110623429D01*
X149648714Y-110659715D01*
X149576143Y-110696000D01*
X149503571Y-110696000D01*
X149394714Y-110659715D01*
X148959286Y-110224286D01*
X148959286Y-110696000D01*
X146419286Y-108700287D02*
X147181286Y-108700287D01*
X146637000Y-108954287D01*
X147181286Y-109208287D01*
X146419286Y-109208287D01*
X146455571Y-109534858D02*
X146419286Y-109643715D01*
X146419286Y-109825144D01*
X146455571Y-109897715D01*
X146491857Y-109934001D01*
X146564429Y-109970286D01*
X146637000Y-109970286D01*
X146709571Y-109934001D01*
X146745857Y-109897715D01*
X146782143Y-109825144D01*
X146818429Y-109680001D01*
X146854714Y-109607429D01*
X146891000Y-109571144D01*
X146963571Y-109534858D01*
X147036143Y-109534858D01*
X147108714Y-109571144D01*
X147145000Y-109607429D01*
X147181286Y-109680001D01*
X147181286Y-109861429D01*
X147145000Y-109970286D01*
X146419286Y-110696000D02*
X146419286Y-110260572D01*
X146419286Y-110478286D02*
X147181286Y-110478286D01*
X147072429Y-110405715D01*
X146999857Y-110333143D01*
X146963571Y-110260572D01*
D15*
X160909000Y-122682000D02*
X160274000Y-122047000D01*
X159004000Y-122047000D02*
X158369000Y-122682000D01*
X158369000Y-122682000D02*
X157734000Y-122047000D01*
X156464000Y-122047000D02*
X155829000Y-122682000D01*
X155829000Y-122682000D02*
X155194000Y-122047000D01*
X153924000Y-122047000D02*
X153289000Y-122682000D01*
X153289000Y-122682000D02*
X152654000Y-122047000D01*
X151384000Y-122047000D02*
X150749000Y-122682000D01*
X160909000Y-122682000D02*
X160909000Y-126492000D01*
X160909000Y-126492000D02*
X160274000Y-127127000D01*
X160274000Y-127127000D02*
X159004000Y-127127000D01*
X159004000Y-127127000D02*
X158369000Y-126492000D01*
X158369000Y-126492000D02*
X157734000Y-127127000D01*
X157734000Y-127127000D02*
X156464000Y-127127000D01*
X156464000Y-127127000D02*
X155829000Y-126492000D01*
X155829000Y-126492000D02*
X155194000Y-127127000D01*
X155194000Y-127127000D02*
X153924000Y-127127000D01*
X153924000Y-127127000D02*
X153289000Y-126492000D01*
X153289000Y-126492000D02*
X152654000Y-127127000D01*
X152654000Y-127127000D02*
X151384000Y-127127000D01*
X151384000Y-127127000D02*
X150749000Y-126492000D01*
X158369000Y-126492000D02*
X158369000Y-122682000D01*
X155829000Y-126492000D02*
X155829000Y-122682000D01*
X153289000Y-126492000D02*
X153289000Y-122682000D01*
X150749000Y-126492000D02*
X150749000Y-122682000D01*
X152654000Y-122047000D02*
X151384000Y-122047000D01*
X155194000Y-122047000D02*
X153924000Y-122047000D01*
X157734000Y-122047000D02*
X156464000Y-122047000D01*
X160274000Y-122047000D02*
X159004000Y-122047000D01*
D16*
X147500000Y-114620000D02*
X137340000Y-114620000D01*
X137340000Y-114620000D02*
X137340000Y-99380000D01*
X137340000Y-99380000D02*
X157660000Y-99380000D01*
X157660000Y-99380000D02*
X157660000Y-114620000D01*
X157660000Y-114620000D02*
X147500000Y-114620000D01*
X168500000Y-114620000D02*
X158340000Y-114620000D01*
X158340000Y-114620000D02*
X158340000Y-99380000D01*
X158340000Y-99380000D02*
X178660000Y-99380000D01*
X178660000Y-99380000D02*
X178660000Y-114620000D01*
X178660000Y-114620000D02*
X168500000Y-114620000D01*
D15*
X145161000Y-122682000D02*
X144526000Y-122047000D01*
X143256000Y-122047000D02*
X142621000Y-122682000D01*
X142621000Y-122682000D02*
X141986000Y-122047000D01*
X140716000Y-122047000D02*
X140081000Y-122682000D01*
X140081000Y-122682000D02*
X139446000Y-122047000D01*
X138176000Y-122047000D02*
X137541000Y-122682000D01*
X137541000Y-122682000D02*
X136906000Y-122047000D01*
X135636000Y-122047000D02*
X135001000Y-122682000D01*
X135001000Y-122682000D02*
X134366000Y-122047000D01*
X133096000Y-122047000D02*
X132461000Y-122682000D01*
X145161000Y-122682000D02*
X145161000Y-126492000D01*
X145161000Y-126492000D02*
X144526000Y-127127000D01*
X144526000Y-127127000D02*
X143256000Y-127127000D01*
X143256000Y-127127000D02*
X142621000Y-126492000D01*
X142621000Y-126492000D02*
X141986000Y-127127000D01*
X141986000Y-127127000D02*
X140716000Y-127127000D01*
X140716000Y-127127000D02*
X140081000Y-126492000D01*
X140081000Y-126492000D02*
X139446000Y-127127000D01*
X139446000Y-127127000D02*
X138176000Y-127127000D01*
X138176000Y-127127000D02*
X137541000Y-126492000D01*
X137541000Y-126492000D02*
X136906000Y-127127000D01*
X136906000Y-127127000D02*
X135636000Y-127127000D01*
X135636000Y-127127000D02*
X135001000Y-126492000D01*
X135001000Y-126492000D02*
X134366000Y-127127000D01*
X134366000Y-127127000D02*
X133096000Y-127127000D01*
X133096000Y-127127000D02*
X132461000Y-126492000D01*
X142621000Y-126492000D02*
X142621000Y-122682000D01*
X140081000Y-126492000D02*
X140081000Y-122682000D01*
X137541000Y-126492000D02*
X137541000Y-122682000D01*
X135001000Y-126492000D02*
X135001000Y-122682000D01*
X132461000Y-126492000D02*
X132461000Y-122682000D01*
X134366000Y-122047000D02*
X133096000Y-122047000D01*
X136906000Y-122047000D02*
X135636000Y-122047000D01*
X139446000Y-122047000D02*
X138176000Y-122047000D01*
X141986000Y-122047000D02*
X140716000Y-122047000D01*
X144526000Y-122047000D02*
X143256000Y-122047000D01*
D17*
X142421000Y-106512000D02*
X142421000Y-104988000D01*
X142294000Y-104607000D02*
X142294000Y-106893000D01*
X142167000Y-107147000D02*
X142167000Y-104353000D01*
X142040000Y-104099000D02*
X142040000Y-107401000D01*
X141913000Y-107528000D02*
X141913000Y-103972000D01*
X142548000Y-105750000D02*
G75*
G03X142548000Y-105750000I-3048000J0D01*
G01*
X142802000Y-109052000D02*
X142802000Y-102448000D01*
X142802000Y-102448000D02*
X136960000Y-102448000D01*
X136960000Y-102448000D02*
X136198000Y-103210000D01*
X136198000Y-103210000D02*
X136198000Y-108290000D01*
X136198000Y-108290000D02*
X136960000Y-109052000D01*
X136960000Y-109052000D02*
X142802000Y-109052000D01*
X137341000Y-105750000D02*
X138103000Y-105750000D01*
X137722000Y-106131000D02*
X137722000Y-105369000D01*
X163421000Y-106512000D02*
X163421000Y-104988000D01*
X163294000Y-104607000D02*
X163294000Y-106893000D01*
X163167000Y-107147000D02*
X163167000Y-104353000D01*
X163040000Y-104099000D02*
X163040000Y-107401000D01*
X162913000Y-107528000D02*
X162913000Y-103972000D01*
X163548000Y-105750000D02*
G75*
G03X163548000Y-105750000I-3048000J0D01*
G01*
X163802000Y-109052000D02*
X163802000Y-102448000D01*
X163802000Y-102448000D02*
X157960000Y-102448000D01*
X157960000Y-102448000D02*
X157198000Y-103210000D01*
X157198000Y-103210000D02*
X157198000Y-108290000D01*
X157198000Y-108290000D02*
X157960000Y-109052000D01*
X157960000Y-109052000D02*
X163802000Y-109052000D01*
X158341000Y-105750000D02*
X159103000Y-105750000D01*
X158722000Y-106131000D02*
X158722000Y-105369000D01*
X184421000Y-106512000D02*
X184421000Y-104988000D01*
X184294000Y-104607000D02*
X184294000Y-106893000D01*
X184167000Y-107147000D02*
X184167000Y-104353000D01*
X184040000Y-104099000D02*
X184040000Y-107401000D01*
X183913000Y-107528000D02*
X183913000Y-103972000D01*
X184548000Y-105750000D02*
G75*
G03X184548000Y-105750000I-3048000J0D01*
G01*
X184802000Y-109052000D02*
X184802000Y-102448000D01*
X184802000Y-102448000D02*
X178960000Y-102448000D01*
X178960000Y-102448000D02*
X178198000Y-103210000D01*
X178198000Y-103210000D02*
X178198000Y-108290000D01*
X178198000Y-108290000D02*
X178960000Y-109052000D01*
X178960000Y-109052000D02*
X184802000Y-109052000D01*
X179341000Y-105750000D02*
X180103000Y-105750000D01*
X179722000Y-106131000D02*
X179722000Y-105369000D01*
D18*
X189700000Y-125200000D02*
X188300000Y-125200000D01*
X188300000Y-125200000D02*
X188300000Y-128000000D01*
X189700000Y-125200000D02*
X189700000Y-128000000D01*
X191950000Y-125200000D02*
X190550000Y-125200000D01*
X190550000Y-125200000D02*
X190550000Y-128000000D01*
X191950000Y-125200000D02*
X191950000Y-128000000D01*
D19*
X189770000Y-119615000D02*
X189770000Y-120885000D01*
X189770000Y-120885000D02*
X189135000Y-121520000D01*
X187865000Y-121520000D02*
X187230000Y-120885000D01*
X189135000Y-121520000D02*
X189770000Y-122155000D01*
X189770000Y-122155000D02*
X189770000Y-123425000D01*
X189770000Y-123425000D02*
X189135000Y-124060000D01*
X187865000Y-124060000D02*
X187230000Y-123425000D01*
X187230000Y-123425000D02*
X187230000Y-122155000D01*
X187230000Y-122155000D02*
X187865000Y-121520000D01*
X189135000Y-118980000D02*
X187865000Y-118980000D01*
X189770000Y-119615000D02*
X189135000Y-118980000D01*
X187865000Y-118980000D02*
X187230000Y-119615000D01*
X187230000Y-120885000D02*
X187230000Y-119615000D01*
X189135000Y-124060000D02*
X187865000Y-124060000D01*
X192770000Y-119615000D02*
X192770000Y-120885000D01*
X192770000Y-120885000D02*
X192135000Y-121520000D01*
X190865000Y-121520000D02*
X190230000Y-120885000D01*
X192135000Y-121520000D02*
X192770000Y-122155000D01*
X192770000Y-122155000D02*
X192770000Y-123425000D01*
X192770000Y-123425000D02*
X192135000Y-124060000D01*
X190865000Y-124060000D02*
X190230000Y-123425000D01*
X190230000Y-123425000D02*
X190230000Y-122155000D01*
X190230000Y-122155000D02*
X190865000Y-121520000D01*
X192135000Y-118980000D02*
X190865000Y-118980000D01*
X192770000Y-119615000D02*
X192135000Y-118980000D01*
X190865000Y-118980000D02*
X190230000Y-119615000D01*
X190230000Y-120885000D02*
X190230000Y-119615000D01*
X192135000Y-124060000D02*
X190865000Y-124060000D01*
X174498000Y-126365000D02*
X175768000Y-126365000D01*
X175768000Y-126365000D02*
X176403000Y-127000000D01*
X176403000Y-128270000D02*
X175768000Y-128905000D01*
X171323000Y-127000000D02*
X171958000Y-126365000D01*
X171958000Y-126365000D02*
X173228000Y-126365000D01*
X173228000Y-126365000D02*
X173863000Y-127000000D01*
X173863000Y-128270000D02*
X173228000Y-128905000D01*
X173228000Y-128905000D02*
X171958000Y-128905000D01*
X171958000Y-128905000D02*
X171323000Y-128270000D01*
X174498000Y-126365000D02*
X173863000Y-127000000D01*
X173863000Y-128270000D02*
X174498000Y-128905000D01*
X175768000Y-128905000D02*
X174498000Y-128905000D01*
X166878000Y-126365000D02*
X168148000Y-126365000D01*
X168148000Y-126365000D02*
X168783000Y-127000000D01*
X168783000Y-128270000D02*
X168148000Y-128905000D01*
X168783000Y-127000000D02*
X169418000Y-126365000D01*
X169418000Y-126365000D02*
X170688000Y-126365000D01*
X170688000Y-126365000D02*
X171323000Y-127000000D01*
X171323000Y-128270000D02*
X170688000Y-128905000D01*
X170688000Y-128905000D02*
X169418000Y-128905000D01*
X169418000Y-128905000D02*
X168783000Y-128270000D01*
X166243000Y-127000000D02*
X166243000Y-128270000D01*
X166878000Y-126365000D02*
X166243000Y-127000000D01*
X166243000Y-128270000D02*
X166878000Y-128905000D01*
X168148000Y-128905000D02*
X166878000Y-128905000D01*
X176403000Y-127000000D02*
X176403000Y-128270000D01*
D15*
X145690000Y-107655000D02*
X146325000Y-108290000D01*
X147595000Y-108290000D02*
X148230000Y-107655000D01*
X148230000Y-107655000D02*
X148865000Y-108290000D01*
X150135000Y-108290000D02*
X150770000Y-107655000D01*
X145690000Y-107655000D02*
X145690000Y-103845000D01*
X145690000Y-103845000D02*
X146325000Y-103210000D01*
X146325000Y-103210000D02*
X147595000Y-103210000D01*
X147595000Y-103210000D02*
X148230000Y-103845000D01*
X148230000Y-103845000D02*
X148865000Y-103210000D01*
X148865000Y-103210000D02*
X150135000Y-103210000D01*
X150135000Y-103210000D02*
X150770000Y-103845000D01*
X148230000Y-103845000D02*
X148230000Y-107655000D01*
X150770000Y-103845000D02*
X150770000Y-107655000D01*
X148865000Y-108290000D02*
X150135000Y-108290000D01*
X146325000Y-108290000D02*
X147595000Y-108290000D01*
X150770000Y-107655000D02*
X151405000Y-108290000D01*
X152675000Y-108290000D02*
X153310000Y-107655000D01*
X150770000Y-103845000D02*
X151405000Y-103210000D01*
X151405000Y-103210000D02*
X152675000Y-103210000D01*
X152675000Y-103210000D02*
X153310000Y-103845000D01*
X153310000Y-103845000D02*
X153310000Y-107655000D01*
X151405000Y-108290000D02*
X152675000Y-108290000D01*
X166690000Y-107655000D02*
X167325000Y-108290000D01*
X168595000Y-108290000D02*
X169230000Y-107655000D01*
X169230000Y-107655000D02*
X169865000Y-108290000D01*
X171135000Y-108290000D02*
X171770000Y-107655000D01*
X166690000Y-107655000D02*
X166690000Y-103845000D01*
X166690000Y-103845000D02*
X167325000Y-103210000D01*
X167325000Y-103210000D02*
X168595000Y-103210000D01*
X168595000Y-103210000D02*
X169230000Y-103845000D01*
X169230000Y-103845000D02*
X169865000Y-103210000D01*
X169865000Y-103210000D02*
X171135000Y-103210000D01*
X171135000Y-103210000D02*
X171770000Y-103845000D01*
X169230000Y-103845000D02*
X169230000Y-107655000D01*
X171770000Y-103845000D02*
X171770000Y-107655000D01*
X169865000Y-108290000D02*
X171135000Y-108290000D01*
X167325000Y-108290000D02*
X168595000Y-108290000D01*
X171770000Y-107655000D02*
X172405000Y-108290000D01*
X173675000Y-108290000D02*
X174310000Y-107655000D01*
X171770000Y-103845000D02*
X172405000Y-103210000D01*
X172405000Y-103210000D02*
X173675000Y-103210000D01*
X173675000Y-103210000D02*
X174310000Y-103845000D01*
X174310000Y-103845000D02*
X174310000Y-107655000D01*
X172405000Y-108290000D02*
X173675000Y-108290000D01*
X187690000Y-107655000D02*
X188325000Y-108290000D01*
X189595000Y-108290000D02*
X190230000Y-107655000D01*
X190230000Y-107655000D02*
X190865000Y-108290000D01*
X192135000Y-108290000D02*
X192770000Y-107655000D01*
X187690000Y-107655000D02*
X187690000Y-103845000D01*
X187690000Y-103845000D02*
X188325000Y-103210000D01*
X188325000Y-103210000D02*
X189595000Y-103210000D01*
X189595000Y-103210000D02*
X190230000Y-103845000D01*
X190230000Y-103845000D02*
X190865000Y-103210000D01*
X190865000Y-103210000D02*
X192135000Y-103210000D01*
X192135000Y-103210000D02*
X192770000Y-103845000D01*
X190230000Y-103845000D02*
X190230000Y-107655000D01*
X192770000Y-103845000D02*
X192770000Y-107655000D01*
X190865000Y-108290000D02*
X192135000Y-108290000D01*
X188325000Y-108290000D02*
X189595000Y-108290000D01*
X192770000Y-107655000D02*
X193405000Y-108290000D01*
X194675000Y-108290000D02*
X195310000Y-107655000D01*
X192770000Y-103845000D02*
X193405000Y-103210000D01*
X193405000Y-103210000D02*
X194675000Y-103210000D01*
X194675000Y-103210000D02*
X195310000Y-103845000D01*
X195310000Y-103845000D02*
X195310000Y-107655000D01*
X193405000Y-108290000D02*
X194675000Y-108290000D01*
D19*
X150785000Y-96330000D02*
X152055000Y-96330000D01*
X152055000Y-96330000D02*
X152690000Y-96965000D01*
X152690000Y-98235000D02*
X152055000Y-98870000D01*
X147610000Y-96965000D02*
X148245000Y-96330000D01*
X148245000Y-96330000D02*
X149515000Y-96330000D01*
X149515000Y-96330000D02*
X150150000Y-96965000D01*
X150150000Y-98235000D02*
X149515000Y-98870000D01*
X149515000Y-98870000D02*
X148245000Y-98870000D01*
X148245000Y-98870000D02*
X147610000Y-98235000D01*
X150785000Y-96330000D02*
X150150000Y-96965000D01*
X150150000Y-98235000D02*
X150785000Y-98870000D01*
X152055000Y-98870000D02*
X150785000Y-98870000D01*
X143165000Y-96330000D02*
X144435000Y-96330000D01*
X144435000Y-96330000D02*
X145070000Y-96965000D01*
X145070000Y-98235000D02*
X144435000Y-98870000D01*
X145070000Y-96965000D02*
X145705000Y-96330000D01*
X145705000Y-96330000D02*
X146975000Y-96330000D01*
X146975000Y-96330000D02*
X147610000Y-96965000D01*
X147610000Y-98235000D02*
X146975000Y-98870000D01*
X146975000Y-98870000D02*
X145705000Y-98870000D01*
X145705000Y-98870000D02*
X145070000Y-98235000D01*
X142530000Y-96965000D02*
X142530000Y-98235000D01*
X143165000Y-96330000D02*
X142530000Y-96965000D01*
X142530000Y-98235000D02*
X143165000Y-98870000D01*
X144435000Y-98870000D02*
X143165000Y-98870000D01*
X152690000Y-96965000D02*
X152690000Y-98235000D01*
X171785000Y-96330000D02*
X173055000Y-96330000D01*
X173055000Y-96330000D02*
X173690000Y-96965000D01*
X173690000Y-98235000D02*
X173055000Y-98870000D01*
X168610000Y-96965000D02*
X169245000Y-96330000D01*
X169245000Y-96330000D02*
X170515000Y-96330000D01*
X170515000Y-96330000D02*
X171150000Y-96965000D01*
X171150000Y-98235000D02*
X170515000Y-98870000D01*
X170515000Y-98870000D02*
X169245000Y-98870000D01*
X169245000Y-98870000D02*
X168610000Y-98235000D01*
X171785000Y-96330000D02*
X171150000Y-96965000D01*
X171150000Y-98235000D02*
X171785000Y-98870000D01*
X173055000Y-98870000D02*
X171785000Y-98870000D01*
X164165000Y-96330000D02*
X165435000Y-96330000D01*
X165435000Y-96330000D02*
X166070000Y-96965000D01*
X166070000Y-98235000D02*
X165435000Y-98870000D01*
X166070000Y-96965000D02*
X166705000Y-96330000D01*
X166705000Y-96330000D02*
X167975000Y-96330000D01*
X167975000Y-96330000D02*
X168610000Y-96965000D01*
X168610000Y-98235000D02*
X167975000Y-98870000D01*
X167975000Y-98870000D02*
X166705000Y-98870000D01*
X166705000Y-98870000D02*
X166070000Y-98235000D01*
X163530000Y-96965000D02*
X163530000Y-98235000D01*
X164165000Y-96330000D02*
X163530000Y-96965000D01*
X163530000Y-98235000D02*
X164165000Y-98870000D01*
X165435000Y-98870000D02*
X164165000Y-98870000D01*
X173690000Y-96965000D02*
X173690000Y-98235000D01*
X192785000Y-96330000D02*
X194055000Y-96330000D01*
X194055000Y-96330000D02*
X194690000Y-96965000D01*
X194690000Y-98235000D02*
X194055000Y-98870000D01*
X189610000Y-96965000D02*
X190245000Y-96330000D01*
X190245000Y-96330000D02*
X191515000Y-96330000D01*
X191515000Y-96330000D02*
X192150000Y-96965000D01*
X192150000Y-98235000D02*
X191515000Y-98870000D01*
X191515000Y-98870000D02*
X190245000Y-98870000D01*
X190245000Y-98870000D02*
X189610000Y-98235000D01*
X192785000Y-96330000D02*
X192150000Y-96965000D01*
X192150000Y-98235000D02*
X192785000Y-98870000D01*
X194055000Y-98870000D02*
X192785000Y-98870000D01*
X185165000Y-96330000D02*
X186435000Y-96330000D01*
X186435000Y-96330000D02*
X187070000Y-96965000D01*
X187070000Y-98235000D02*
X186435000Y-98870000D01*
X187070000Y-96965000D02*
X187705000Y-96330000D01*
X187705000Y-96330000D02*
X188975000Y-96330000D01*
X188975000Y-96330000D02*
X189610000Y-96965000D01*
X189610000Y-98235000D02*
X188975000Y-98870000D01*
X188975000Y-98870000D02*
X187705000Y-98870000D01*
X187705000Y-98870000D02*
X187070000Y-98235000D01*
X184530000Y-96965000D02*
X184530000Y-98235000D01*
X185165000Y-96330000D02*
X184530000Y-96965000D01*
X184530000Y-98235000D02*
X185165000Y-98870000D01*
X186435000Y-98870000D02*
X185165000Y-98870000D01*
X194690000Y-96965000D02*
X194690000Y-98235000D01*
D20*
X210350000Y-109750000D02*
X210850000Y-109750000D01*
X208350000Y-107250000D02*
G75*
G03X208350000Y-107250000I-2000000J0D01*
G01*
X208350000Y-112250000D02*
G75*
G03X208350000Y-112250000I-2000000J0D01*
G01*
X208850000Y-114750000D02*
X208850000Y-104750000D01*
X203950000Y-114750000D02*
X203950000Y-104750000D01*
X210350000Y-114750000D02*
X210350000Y-104750000D01*
X210850000Y-114750000D02*
X210850000Y-104750000D01*
X210850000Y-104750000D02*
X201050000Y-104750000D01*
X201050000Y-104750000D02*
X201050000Y-114750000D01*
X201050000Y-114750000D02*
X210850000Y-114750000D01*
D18*
X178820000Y-127500000D02*
X178820000Y-126500000D01*
X180180000Y-126500000D02*
X180180000Y-127500000D01*
X177070000Y-127500000D02*
X177070000Y-126500000D01*
X178430000Y-126500000D02*
X178430000Y-127500000D01*
X178820000Y-124500000D02*
X178820000Y-123500000D01*
X180180000Y-123500000D02*
X180180000Y-124500000D01*
X177070000Y-124500000D02*
X177070000Y-123500000D01*
X178430000Y-123500000D02*
X178430000Y-124500000D01*
X186320000Y-126750000D02*
X186320000Y-125750000D01*
X187680000Y-125750000D02*
X187680000Y-126750000D01*
X192570000Y-126750000D02*
X192570000Y-125750000D01*
X193930000Y-125750000D02*
X193930000Y-126750000D01*
X141000000Y-111930000D02*
X140000000Y-111930000D01*
X140000000Y-110570000D02*
X141000000Y-110570000D01*
X162000000Y-111930000D02*
X161000000Y-111930000D01*
X161000000Y-110570000D02*
X162000000Y-110570000D01*
X183000000Y-111930000D02*
X182000000Y-111930000D01*
X182000000Y-110570000D02*
X183000000Y-110570000D01*
X138500000Y-116430000D02*
X137500000Y-116430000D01*
X137500000Y-115070000D02*
X138500000Y-115070000D01*
X158500000Y-115070000D02*
X159500000Y-115070000D01*
X159500000Y-116430000D02*
X158500000Y-116430000D01*
X179500000Y-115070000D02*
X180500000Y-115070000D01*
X180500000Y-116430000D02*
X179500000Y-116430000D01*
D16*
X189500000Y-114620000D02*
X179340000Y-114620000D01*
X179340000Y-114620000D02*
X179340000Y-99380000D01*
X179340000Y-99380000D02*
X199660000Y-99380000D01*
X199660000Y-99380000D02*
X199660000Y-114620000D01*
X199660000Y-114620000D02*
X189500000Y-114620000D01*
X181900000Y-126050000D02*
G75*
G03X181900000Y-126050000I-250000J0D01*
G01*
X180925000Y-126825000D02*
X180975000Y-126825000D01*
X180925000Y-122675000D02*
X181070000Y-122675000D01*
X186075000Y-122675000D02*
X185930000Y-122675000D01*
X186075000Y-126825000D02*
X185930000Y-126825000D01*
X180925000Y-126825000D02*
X180925000Y-122675000D01*
X186075000Y-126825000D02*
X186075000Y-122675000D01*
X180975000Y-126825000D02*
X180975000Y-128225000D01*
D15*
X166195000Y-122761000D02*
X166830000Y-123396000D01*
X168100000Y-123396000D02*
X168735000Y-122761000D01*
X168735000Y-122761000D02*
X169370000Y-123396000D01*
X170640000Y-123396000D02*
X171275000Y-122761000D01*
X171275000Y-122761000D02*
X171910000Y-123396000D01*
X173180000Y-123396000D02*
X173815000Y-122761000D01*
X173815000Y-122761000D02*
X174450000Y-123396000D01*
X175720000Y-123396000D02*
X176355000Y-122761000D01*
X166195000Y-122761000D02*
X166195000Y-118951000D01*
X166195000Y-118951000D02*
X166830000Y-118316000D01*
X166830000Y-118316000D02*
X168100000Y-118316000D01*
X168100000Y-118316000D02*
X168735000Y-118951000D01*
X168735000Y-118951000D02*
X169370000Y-118316000D01*
X169370000Y-118316000D02*
X170640000Y-118316000D01*
X170640000Y-118316000D02*
X171275000Y-118951000D01*
X171275000Y-118951000D02*
X171910000Y-118316000D01*
X171910000Y-118316000D02*
X173180000Y-118316000D01*
X173180000Y-118316000D02*
X173815000Y-118951000D01*
X173815000Y-118951000D02*
X174450000Y-118316000D01*
X174450000Y-118316000D02*
X175720000Y-118316000D01*
X175720000Y-118316000D02*
X176355000Y-118951000D01*
X168735000Y-118951000D02*
X168735000Y-122761000D01*
X171275000Y-118951000D02*
X171275000Y-122761000D01*
X173815000Y-118951000D02*
X173815000Y-122761000D01*
X176355000Y-118951000D02*
X176355000Y-122761000D01*
X174450000Y-123396000D02*
X175720000Y-123396000D01*
X171910000Y-123396000D02*
X173180000Y-123396000D01*
X169370000Y-123396000D02*
X170640000Y-123396000D01*
X166830000Y-123396000D02*
X168100000Y-123396000D01*
D19*
X174450000Y-123396000D02*
X175720000Y-123396000D01*
X175720000Y-123396000D02*
X176355000Y-124031000D01*
X176355000Y-125301000D02*
X175720000Y-125936000D01*
X171275000Y-124031000D02*
X171910000Y-123396000D01*
X171910000Y-123396000D02*
X173180000Y-123396000D01*
X173180000Y-123396000D02*
X173815000Y-124031000D01*
X173815000Y-125301000D02*
X173180000Y-125936000D01*
X173180000Y-125936000D02*
X171910000Y-125936000D01*
X171910000Y-125936000D02*
X171275000Y-125301000D01*
X174450000Y-123396000D02*
X173815000Y-124031000D01*
X173815000Y-125301000D02*
X174450000Y-125936000D01*
X175720000Y-125936000D02*
X174450000Y-125936000D01*
X166830000Y-123396000D02*
X168100000Y-123396000D01*
X168100000Y-123396000D02*
X168735000Y-124031000D01*
X168735000Y-125301000D02*
X168100000Y-125936000D01*
X168735000Y-124031000D02*
X169370000Y-123396000D01*
X169370000Y-123396000D02*
X170640000Y-123396000D01*
X170640000Y-123396000D02*
X171275000Y-124031000D01*
X171275000Y-125301000D02*
X170640000Y-125936000D01*
X170640000Y-125936000D02*
X169370000Y-125936000D01*
X169370000Y-125936000D02*
X168735000Y-125301000D01*
X166195000Y-124031000D02*
X166195000Y-125301000D01*
X166830000Y-123396000D02*
X166195000Y-124031000D01*
X166195000Y-125301000D02*
X166830000Y-125936000D01*
X168100000Y-125936000D02*
X166830000Y-125936000D01*
X176355000Y-124031000D02*
X176355000Y-125301000D01*
D16*
X159435467Y-127471181D02*
X159435467Y-128185467D01*
X159387847Y-128328324D01*
X159292609Y-128423562D01*
X159149752Y-128471181D01*
X159054514Y-128471181D01*
X159864038Y-127566419D02*
X159911657Y-127518800D01*
X160006895Y-127471181D01*
X160244991Y-127471181D01*
X160340229Y-127518800D01*
X160387848Y-127566419D01*
X160435467Y-127661657D01*
X160435467Y-127756895D01*
X160387848Y-127899752D01*
X159816419Y-128471181D01*
X160435467Y-128471181D01*
D21*
X161900086Y-123652219D02*
X161319515Y-123652219D01*
X161609801Y-123652219D02*
X161609801Y-122636219D01*
X161513039Y-122781362D01*
X161416277Y-122878124D01*
X161319515Y-122926505D01*
D10*
X144977314Y-98900057D02*
X145063028Y-98928629D01*
X145205885Y-98928629D01*
X145263028Y-98900057D01*
X145291599Y-98871486D01*
X145320171Y-98814343D01*
X145320171Y-98757200D01*
X145291599Y-98700057D01*
X145263028Y-98671486D01*
X145205885Y-98642914D01*
X145091599Y-98614343D01*
X145034457Y-98585771D01*
X145005885Y-98557200D01*
X144977314Y-98500057D01*
X144977314Y-98442914D01*
X145005885Y-98385771D01*
X145034457Y-98357200D01*
X145091599Y-98328629D01*
X145234457Y-98328629D01*
X145320171Y-98357200D01*
X145491600Y-98328629D02*
X145834457Y-98328629D01*
X145663028Y-98928629D02*
X145663028Y-98328629D01*
X146034457Y-98614343D02*
X146234457Y-98614343D01*
X146320171Y-98928629D02*
X146034457Y-98928629D01*
X146034457Y-98328629D01*
X146320171Y-98328629D01*
X146577314Y-98928629D02*
X146577314Y-98328629D01*
X146805886Y-98328629D01*
X146863028Y-98357200D01*
X146891600Y-98385771D01*
X146920171Y-98442914D01*
X146920171Y-98528629D01*
X146891600Y-98585771D01*
X146863028Y-98614343D01*
X146805886Y-98642914D01*
X146577314Y-98642914D01*
X147148743Y-98900057D02*
X147234457Y-98928629D01*
X147377314Y-98928629D01*
X147434457Y-98900057D01*
X147463028Y-98871486D01*
X147491600Y-98814343D01*
X147491600Y-98757200D01*
X147463028Y-98700057D01*
X147434457Y-98671486D01*
X147377314Y-98642914D01*
X147263028Y-98614343D01*
X147205886Y-98585771D01*
X147177314Y-98557200D01*
X147148743Y-98500057D01*
X147148743Y-98442914D01*
X147177314Y-98385771D01*
X147205886Y-98357200D01*
X147263028Y-98328629D01*
X147405886Y-98328629D01*
X147491600Y-98357200D01*
X147663029Y-98328629D02*
X148005886Y-98328629D01*
X147834457Y-98928629D02*
X147834457Y-98328629D01*
X148205886Y-98928629D02*
X148205886Y-98328629D01*
X148834457Y-98871486D02*
X148805886Y-98900057D01*
X148720172Y-98928629D01*
X148663029Y-98928629D01*
X148577314Y-98900057D01*
X148520172Y-98842914D01*
X148491600Y-98785771D01*
X148463029Y-98671486D01*
X148463029Y-98585771D01*
X148491600Y-98471486D01*
X148520172Y-98414343D01*
X148577314Y-98357200D01*
X148663029Y-98328629D01*
X148720172Y-98328629D01*
X148805886Y-98357200D01*
X148834457Y-98385771D01*
X149091600Y-98928629D02*
X149091600Y-98328629D01*
X149434457Y-98928629D02*
X149177314Y-98585771D01*
X149434457Y-98328629D02*
X149091600Y-98671486D01*
X150005886Y-98928629D02*
X149663029Y-98928629D01*
X149834457Y-98928629D02*
X149834457Y-98328629D01*
X149777314Y-98414343D01*
X149720172Y-98471486D01*
X149663029Y-98500057D01*
X165898914Y-98900057D02*
X165984628Y-98928629D01*
X166127485Y-98928629D01*
X166184628Y-98900057D01*
X166213199Y-98871486D01*
X166241771Y-98814343D01*
X166241771Y-98757200D01*
X166213199Y-98700057D01*
X166184628Y-98671486D01*
X166127485Y-98642914D01*
X166013199Y-98614343D01*
X165956057Y-98585771D01*
X165927485Y-98557200D01*
X165898914Y-98500057D01*
X165898914Y-98442914D01*
X165927485Y-98385771D01*
X165956057Y-98357200D01*
X166013199Y-98328629D01*
X166156057Y-98328629D01*
X166241771Y-98357200D01*
X166413200Y-98328629D02*
X166756057Y-98328629D01*
X166584628Y-98928629D02*
X166584628Y-98328629D01*
X166956057Y-98614343D02*
X167156057Y-98614343D01*
X167241771Y-98928629D02*
X166956057Y-98928629D01*
X166956057Y-98328629D01*
X167241771Y-98328629D01*
X167498914Y-98928629D02*
X167498914Y-98328629D01*
X167727486Y-98328629D01*
X167784628Y-98357200D01*
X167813200Y-98385771D01*
X167841771Y-98442914D01*
X167841771Y-98528629D01*
X167813200Y-98585771D01*
X167784628Y-98614343D01*
X167727486Y-98642914D01*
X167498914Y-98642914D01*
X168070343Y-98900057D02*
X168156057Y-98928629D01*
X168298914Y-98928629D01*
X168356057Y-98900057D01*
X168384628Y-98871486D01*
X168413200Y-98814343D01*
X168413200Y-98757200D01*
X168384628Y-98700057D01*
X168356057Y-98671486D01*
X168298914Y-98642914D01*
X168184628Y-98614343D01*
X168127486Y-98585771D01*
X168098914Y-98557200D01*
X168070343Y-98500057D01*
X168070343Y-98442914D01*
X168098914Y-98385771D01*
X168127486Y-98357200D01*
X168184628Y-98328629D01*
X168327486Y-98328629D01*
X168413200Y-98357200D01*
X168584629Y-98328629D02*
X168927486Y-98328629D01*
X168756057Y-98928629D02*
X168756057Y-98328629D01*
X169127486Y-98928629D02*
X169127486Y-98328629D01*
X169756057Y-98871486D02*
X169727486Y-98900057D01*
X169641772Y-98928629D01*
X169584629Y-98928629D01*
X169498914Y-98900057D01*
X169441772Y-98842914D01*
X169413200Y-98785771D01*
X169384629Y-98671486D01*
X169384629Y-98585771D01*
X169413200Y-98471486D01*
X169441772Y-98414343D01*
X169498914Y-98357200D01*
X169584629Y-98328629D01*
X169641772Y-98328629D01*
X169727486Y-98357200D01*
X169756057Y-98385771D01*
X170013200Y-98928629D02*
X170013200Y-98328629D01*
X170356057Y-98928629D02*
X170098914Y-98585771D01*
X170356057Y-98328629D02*
X170013200Y-98671486D01*
X170584629Y-98385771D02*
X170613200Y-98357200D01*
X170670343Y-98328629D01*
X170813200Y-98328629D01*
X170870343Y-98357200D01*
X170898914Y-98385771D01*
X170927486Y-98442914D01*
X170927486Y-98500057D01*
X170898914Y-98585771D01*
X170556057Y-98928629D01*
X170927486Y-98928629D01*
D16*
X143484267Y-127572781D02*
X143484267Y-128287067D01*
X143436647Y-128429924D01*
X143341409Y-128525162D01*
X143198552Y-128572781D01*
X143103314Y-128572781D01*
X143865219Y-127572781D02*
X144484267Y-127572781D01*
X144150933Y-127953733D01*
X144293791Y-127953733D01*
X144389029Y-128001352D01*
X144436648Y-128048971D01*
X144484267Y-128144210D01*
X144484267Y-128382305D01*
X144436648Y-128477543D01*
X144389029Y-128525162D01*
X144293791Y-128572781D01*
X144008076Y-128572781D01*
X143912838Y-128525162D01*
X143865219Y-128477543D01*
D21*
X146089086Y-123703219D02*
X145508515Y-123703219D01*
X145798801Y-123703219D02*
X145798801Y-122687219D01*
X145702039Y-122832362D01*
X145605277Y-122929124D01*
X145508515Y-122977505D01*
D16*
X139312534Y-102010743D02*
X139264915Y-102058362D01*
X139122058Y-102105981D01*
X139026820Y-102105981D01*
X138883962Y-102058362D01*
X138788724Y-101963124D01*
X138741105Y-101867886D01*
X138693486Y-101677410D01*
X138693486Y-101534552D01*
X138741105Y-101344076D01*
X138788724Y-101248838D01*
X138883962Y-101153600D01*
X139026820Y-101105981D01*
X139122058Y-101105981D01*
X139264915Y-101153600D01*
X139312534Y-101201219D01*
X140264915Y-102105981D02*
X139693486Y-102105981D01*
X139979200Y-102105981D02*
X139979200Y-101105981D01*
X139883962Y-101248838D01*
X139788724Y-101344076D01*
X139693486Y-101391695D01*
X160332134Y-101959943D02*
X160284515Y-102007562D01*
X160141658Y-102055181D01*
X160046420Y-102055181D01*
X159903562Y-102007562D01*
X159808324Y-101912324D01*
X159760705Y-101817086D01*
X159713086Y-101626610D01*
X159713086Y-101483752D01*
X159760705Y-101293276D01*
X159808324Y-101198038D01*
X159903562Y-101102800D01*
X160046420Y-101055181D01*
X160141658Y-101055181D01*
X160284515Y-101102800D01*
X160332134Y-101150419D01*
X160713086Y-101150419D02*
X160760705Y-101102800D01*
X160855943Y-101055181D01*
X161094039Y-101055181D01*
X161189277Y-101102800D01*
X161236896Y-101150419D01*
X161284515Y-101245657D01*
X161284515Y-101340895D01*
X161236896Y-101483752D01*
X160665467Y-102055181D01*
X161284515Y-102055181D01*
X181358934Y-102009143D02*
X181311315Y-102056762D01*
X181168458Y-102104381D01*
X181073220Y-102104381D01*
X180930362Y-102056762D01*
X180835124Y-101961524D01*
X180787505Y-101866286D01*
X180739886Y-101675810D01*
X180739886Y-101532952D01*
X180787505Y-101342476D01*
X180835124Y-101247238D01*
X180930362Y-101152000D01*
X181073220Y-101104381D01*
X181168458Y-101104381D01*
X181311315Y-101152000D01*
X181358934Y-101199619D01*
X181692267Y-101104381D02*
X182311315Y-101104381D01*
X181977981Y-101485333D01*
X182120839Y-101485333D01*
X182216077Y-101532952D01*
X182263696Y-101580571D01*
X182311315Y-101675810D01*
X182311315Y-101913905D01*
X182263696Y-102009143D01*
X182216077Y-102056762D01*
X182120839Y-102104381D01*
X181835124Y-102104381D01*
X181739886Y-102056762D01*
X181692267Y-102009143D01*
D14*
X186905072Y-129265214D02*
X186905072Y-128503214D01*
X187086500Y-128503214D01*
X187195357Y-128539500D01*
X187267929Y-128612071D01*
X187304214Y-128684643D01*
X187340500Y-128829786D01*
X187340500Y-128938643D01*
X187304214Y-129083786D01*
X187267929Y-129156357D01*
X187195357Y-129228929D01*
X187086500Y-129265214D01*
X186905072Y-129265214D01*
X188066214Y-129265214D02*
X187630786Y-129265214D01*
X187848500Y-129265214D02*
X187848500Y-128503214D01*
X187775929Y-128612071D01*
X187703357Y-128684643D01*
X187630786Y-128720929D01*
X192429572Y-129201714D02*
X192429572Y-128439714D01*
X192611000Y-128439714D01*
X192719857Y-128476000D01*
X192792429Y-128548571D01*
X192828714Y-128621143D01*
X192865000Y-128766286D01*
X192865000Y-128875143D01*
X192828714Y-129020286D01*
X192792429Y-129092857D01*
X192719857Y-129165429D01*
X192611000Y-129201714D01*
X192429572Y-129201714D01*
X193155286Y-128512286D02*
X193191572Y-128476000D01*
X193264143Y-128439714D01*
X193445572Y-128439714D01*
X193518143Y-128476000D01*
X193554429Y-128512286D01*
X193590714Y-128584857D01*
X193590714Y-128657429D01*
X193554429Y-128766286D01*
X193119000Y-129201714D01*
X193590714Y-129201714D01*
X188429071Y-118406714D02*
X188429071Y-118660714D01*
X188828214Y-118660714D02*
X188066214Y-118660714D01*
X188066214Y-118297857D01*
X188610500Y-118043857D02*
X188610500Y-117681000D01*
X188828214Y-118116429D02*
X188066214Y-117862429D01*
X188828214Y-117608429D01*
X188828214Y-117354428D02*
X188066214Y-117354428D01*
X188828214Y-116919000D01*
X188066214Y-116919000D01*
X188828214Y-116157000D02*
X188828214Y-116592428D01*
X188828214Y-116374714D02*
X188066214Y-116374714D01*
X188175071Y-116447285D01*
X188247643Y-116519857D01*
X188283929Y-116592428D01*
X191540571Y-118406714D02*
X191540571Y-118660714D01*
X191939714Y-118660714D02*
X191177714Y-118660714D01*
X191177714Y-118297857D01*
X191722000Y-118043857D02*
X191722000Y-117681000D01*
X191939714Y-118116429D02*
X191177714Y-117862429D01*
X191939714Y-117608429D01*
X191939714Y-117354428D02*
X191177714Y-117354428D01*
X191939714Y-116919000D01*
X191177714Y-116919000D01*
X191250286Y-116592428D02*
X191214000Y-116556142D01*
X191177714Y-116483571D01*
X191177714Y-116302142D01*
X191214000Y-116229571D01*
X191250286Y-116193285D01*
X191322857Y-116157000D01*
X191395429Y-116157000D01*
X191504286Y-116193285D01*
X191939714Y-116628714D01*
X191939714Y-116157000D01*
D16*
X167131667Y-124869381D02*
X167131667Y-125583667D01*
X167084047Y-125726524D01*
X166988809Y-125821762D01*
X166845952Y-125869381D01*
X166750714Y-125869381D01*
X168131667Y-125869381D02*
X167560238Y-125869381D01*
X167845952Y-125869381D02*
X167845952Y-124869381D01*
X167750714Y-125012238D01*
X167655476Y-125107476D01*
X167560238Y-125155095D01*
X151655867Y-101849581D02*
X151655867Y-102563867D01*
X151608247Y-102706724D01*
X151513009Y-102801962D01*
X151370152Y-102849581D01*
X151274914Y-102849581D01*
X152560629Y-102182914D02*
X152560629Y-102849581D01*
X152322533Y-101801962D02*
X152084438Y-102516248D01*
X152703486Y-102516248D01*
X172655867Y-101849581D02*
X172655867Y-102563867D01*
X172608247Y-102706724D01*
X172513009Y-102801962D01*
X172370152Y-102849581D01*
X172274914Y-102849581D01*
X173608248Y-101849581D02*
X173132057Y-101849581D01*
X173084438Y-102325771D01*
X173132057Y-102278152D01*
X173227295Y-102230533D01*
X173465391Y-102230533D01*
X173560629Y-102278152D01*
X173608248Y-102325771D01*
X173655867Y-102421010D01*
X173655867Y-102659105D01*
X173608248Y-102754343D01*
X173560629Y-102801962D01*
X173465391Y-102849581D01*
X173227295Y-102849581D01*
X173132057Y-102801962D01*
X173084438Y-102754343D01*
X193739467Y-101779181D02*
X193739467Y-102493467D01*
X193691847Y-102636324D01*
X193596609Y-102731562D01*
X193453752Y-102779181D01*
X193358514Y-102779181D01*
X194644229Y-101779181D02*
X194453752Y-101779181D01*
X194358514Y-101826800D01*
X194310895Y-101874419D01*
X194215657Y-102017276D01*
X194168038Y-102207752D01*
X194168038Y-102588705D01*
X194215657Y-102683943D01*
X194263276Y-102731562D01*
X194358514Y-102779181D01*
X194548991Y-102779181D01*
X194644229Y-102731562D01*
X194691848Y-102683943D01*
X194739467Y-102588705D01*
X194739467Y-102350610D01*
X194691848Y-102255371D01*
X194644229Y-102207752D01*
X194548991Y-102160133D01*
X194358514Y-102160133D01*
X194263276Y-102207752D01*
X194215657Y-102255371D01*
X194168038Y-102350610D01*
X140958267Y-97129981D02*
X140958267Y-97844267D01*
X140910647Y-97987124D01*
X140815409Y-98082362D01*
X140672552Y-98129981D01*
X140577314Y-98129981D01*
X141339219Y-97129981D02*
X142005886Y-97129981D01*
X141577314Y-98129981D01*
X161981467Y-97079181D02*
X161981467Y-97793467D01*
X161933847Y-97936324D01*
X161838609Y-98031562D01*
X161695752Y-98079181D01*
X161600514Y-98079181D01*
X162600514Y-97507752D02*
X162505276Y-97460133D01*
X162457657Y-97412514D01*
X162410038Y-97317276D01*
X162410038Y-97269657D01*
X162457657Y-97174419D01*
X162505276Y-97126800D01*
X162600514Y-97079181D01*
X162790991Y-97079181D01*
X162886229Y-97126800D01*
X162933848Y-97174419D01*
X162981467Y-97269657D01*
X162981467Y-97317276D01*
X162933848Y-97412514D01*
X162886229Y-97460133D01*
X162790991Y-97507752D01*
X162600514Y-97507752D01*
X162505276Y-97555371D01*
X162457657Y-97602990D01*
X162410038Y-97698229D01*
X162410038Y-97888705D01*
X162457657Y-97983943D01*
X162505276Y-98031562D01*
X162600514Y-98079181D01*
X162790991Y-98079181D01*
X162886229Y-98031562D01*
X162933848Y-97983943D01*
X162981467Y-97888705D01*
X162981467Y-97698229D01*
X162933848Y-97602990D01*
X162886229Y-97555371D01*
X162790991Y-97507752D01*
X182903067Y-97079181D02*
X182903067Y-97793467D01*
X182855447Y-97936324D01*
X182760209Y-98031562D01*
X182617352Y-98079181D01*
X182522114Y-98079181D01*
X183426876Y-98079181D02*
X183617352Y-98079181D01*
X183712591Y-98031562D01*
X183760210Y-97983943D01*
X183855448Y-97841086D01*
X183903067Y-97650610D01*
X183903067Y-97269657D01*
X183855448Y-97174419D01*
X183807829Y-97126800D01*
X183712591Y-97079181D01*
X183522114Y-97079181D01*
X183426876Y-97126800D01*
X183379257Y-97174419D01*
X183331638Y-97269657D01*
X183331638Y-97507752D01*
X183379257Y-97602990D01*
X183426876Y-97650610D01*
X183522114Y-97698229D01*
X183712591Y-97698229D01*
X183807829Y-97650610D01*
X183855448Y-97602990D01*
X183903067Y-97507752D01*
D15*
X201004286Y-104256924D02*
X201004286Y-102986924D01*
X201488095Y-102986924D01*
X201609048Y-103047400D01*
X201669524Y-103107876D01*
X201730000Y-103228829D01*
X201730000Y-103410257D01*
X201669524Y-103531210D01*
X201609048Y-103591686D01*
X201488095Y-103652162D01*
X201004286Y-103652162D01*
X202153334Y-102986924D02*
X202455715Y-104256924D01*
X202697619Y-103349781D01*
X202939524Y-104256924D01*
X203241905Y-102986924D01*
X204451429Y-104256924D02*
X204028096Y-103652162D01*
X203725715Y-104256924D02*
X203725715Y-102986924D01*
X204209524Y-102986924D01*
X204330477Y-103047400D01*
X204390953Y-103107876D01*
X204451429Y-103228829D01*
X204451429Y-103410257D01*
X204390953Y-103531210D01*
X204330477Y-103591686D01*
X204209524Y-103652162D01*
X203725715Y-103652162D01*
X204995715Y-104256924D02*
X204995715Y-102986924D01*
X205600477Y-104256924D02*
X205600477Y-102986924D01*
X206326191Y-104256924D01*
X206326191Y-102986924D01*
X207596191Y-104256924D02*
X206870477Y-104256924D01*
X207233334Y-104256924D02*
X207233334Y-102986924D01*
X207112382Y-103168352D01*
X206991429Y-103289305D01*
X206870477Y-103349781D01*
D16*
X179744334Y-129436381D02*
X179411000Y-128960190D01*
X179172905Y-129436381D02*
X179172905Y-128436381D01*
X179553858Y-128436381D01*
X179649096Y-128484000D01*
X179696715Y-128531619D01*
X179744334Y-128626857D01*
X179744334Y-128769714D01*
X179696715Y-128864952D01*
X179649096Y-128912571D01*
X179553858Y-128960190D01*
X179172905Y-128960190D01*
X180696715Y-129436381D02*
X180125286Y-129436381D01*
X180411000Y-129436381D02*
X180411000Y-128436381D01*
X180315762Y-128579238D01*
X180220524Y-128674476D01*
X180125286Y-128722095D01*
X177394834Y-129436381D02*
X177061500Y-128960190D01*
X176823405Y-129436381D02*
X176823405Y-128436381D01*
X177204358Y-128436381D01*
X177299596Y-128484000D01*
X177347215Y-128531619D01*
X177394834Y-128626857D01*
X177394834Y-128769714D01*
X177347215Y-128864952D01*
X177299596Y-128912571D01*
X177204358Y-128960190D01*
X176823405Y-128960190D01*
X177775786Y-128531619D02*
X177823405Y-128484000D01*
X177918643Y-128436381D01*
X178156739Y-128436381D01*
X178251977Y-128484000D01*
X178299596Y-128531619D01*
X178347215Y-128626857D01*
X178347215Y-128722095D01*
X178299596Y-128864952D01*
X177728167Y-129436381D01*
X178347215Y-129436381D01*
X179982381Y-121848166D02*
X179506190Y-122181500D01*
X179982381Y-122419595D02*
X178982381Y-122419595D01*
X178982381Y-122038642D01*
X179030000Y-121943404D01*
X179077619Y-121895785D01*
X179172857Y-121848166D01*
X179315714Y-121848166D01*
X179410952Y-121895785D01*
X179458571Y-121943404D01*
X179506190Y-122038642D01*
X179506190Y-122419595D01*
X178982381Y-121514833D02*
X178982381Y-120895785D01*
X179363333Y-121229119D01*
X179363333Y-121086261D01*
X179410952Y-120991023D01*
X179458571Y-120943404D01*
X179553810Y-120895785D01*
X179791905Y-120895785D01*
X179887143Y-120943404D01*
X179934762Y-120991023D01*
X179982381Y-121086261D01*
X179982381Y-121371976D01*
X179934762Y-121467214D01*
X179887143Y-121514833D01*
X178267881Y-121848166D02*
X177791690Y-122181500D01*
X178267881Y-122419595D02*
X177267881Y-122419595D01*
X177267881Y-122038642D01*
X177315500Y-121943404D01*
X177363119Y-121895785D01*
X177458357Y-121848166D01*
X177601214Y-121848166D01*
X177696452Y-121895785D01*
X177744071Y-121943404D01*
X177791690Y-122038642D01*
X177791690Y-122419595D01*
X177601214Y-120991023D02*
X178267881Y-120991023D01*
X177220262Y-121229119D02*
X177934548Y-121467214D01*
X177934548Y-120848166D01*
D14*
X187090714Y-124345000D02*
X186727857Y-124599000D01*
X187090714Y-124780428D02*
X186328714Y-124780428D01*
X186328714Y-124490143D01*
X186365000Y-124417571D01*
X186401286Y-124381286D01*
X186473857Y-124345000D01*
X186582714Y-124345000D01*
X186655286Y-124381286D01*
X186691571Y-124417571D01*
X186727857Y-124490143D01*
X186727857Y-124780428D01*
X186328714Y-123655571D02*
X186328714Y-124018428D01*
X186691571Y-124054714D01*
X186655286Y-124018428D01*
X186619000Y-123945857D01*
X186619000Y-123764428D01*
X186655286Y-123691857D01*
X186691571Y-123655571D01*
X186764143Y-123619286D01*
X186945571Y-123619286D01*
X187018143Y-123655571D01*
X187054429Y-123691857D01*
X187090714Y-123764428D01*
X187090714Y-123945857D01*
X187054429Y-124018428D01*
X187018143Y-124054714D01*
X193848714Y-124345000D02*
X193485857Y-124599000D01*
X193848714Y-124780428D02*
X193086714Y-124780428D01*
X193086714Y-124490143D01*
X193123000Y-124417571D01*
X193159286Y-124381286D01*
X193231857Y-124345000D01*
X193340714Y-124345000D01*
X193413286Y-124381286D01*
X193449571Y-124417571D01*
X193485857Y-124490143D01*
X193485857Y-124780428D01*
X193086714Y-123691857D02*
X193086714Y-123837000D01*
X193123000Y-123909571D01*
X193159286Y-123945857D01*
X193268143Y-124018428D01*
X193413286Y-124054714D01*
X193703571Y-124054714D01*
X193776143Y-124018428D01*
X193812429Y-123982143D01*
X193848714Y-123909571D01*
X193848714Y-123764428D01*
X193812429Y-123691857D01*
X193776143Y-123655571D01*
X193703571Y-123619286D01*
X193522143Y-123619286D01*
X193449571Y-123655571D01*
X193413286Y-123691857D01*
X193377000Y-123764428D01*
X193377000Y-123909571D01*
X193413286Y-123982143D01*
X193449571Y-124018428D01*
X193522143Y-124054714D01*
D16*
X142723734Y-111806781D02*
X142390400Y-111330590D01*
X142152305Y-111806781D02*
X142152305Y-110806781D01*
X142533258Y-110806781D01*
X142628496Y-110854400D01*
X142676115Y-110902019D01*
X142723734Y-110997257D01*
X142723734Y-111140114D01*
X142676115Y-111235352D01*
X142628496Y-111282971D01*
X142533258Y-111330590D01*
X142152305Y-111330590D01*
X143057067Y-110806781D02*
X143723734Y-110806781D01*
X143295162Y-111806781D01*
X163873334Y-111857581D02*
X163540000Y-111381390D01*
X163301905Y-111857581D02*
X163301905Y-110857581D01*
X163682858Y-110857581D01*
X163778096Y-110905200D01*
X163825715Y-110952819D01*
X163873334Y-111048057D01*
X163873334Y-111190914D01*
X163825715Y-111286152D01*
X163778096Y-111333771D01*
X163682858Y-111381390D01*
X163301905Y-111381390D01*
X164444762Y-111286152D02*
X164349524Y-111238533D01*
X164301905Y-111190914D01*
X164254286Y-111095676D01*
X164254286Y-111048057D01*
X164301905Y-110952819D01*
X164349524Y-110905200D01*
X164444762Y-110857581D01*
X164635239Y-110857581D01*
X164730477Y-110905200D01*
X164778096Y-110952819D01*
X164825715Y-111048057D01*
X164825715Y-111095676D01*
X164778096Y-111190914D01*
X164730477Y-111238533D01*
X164635239Y-111286152D01*
X164444762Y-111286152D01*
X164349524Y-111333771D01*
X164301905Y-111381390D01*
X164254286Y-111476629D01*
X164254286Y-111667105D01*
X164301905Y-111762343D01*
X164349524Y-111809962D01*
X164444762Y-111857581D01*
X164635239Y-111857581D01*
X164730477Y-111809962D01*
X164778096Y-111762343D01*
X164825715Y-111667105D01*
X164825715Y-111476629D01*
X164778096Y-111381390D01*
X164730477Y-111333771D01*
X164635239Y-111286152D01*
X184822534Y-111857581D02*
X184489200Y-111381390D01*
X184251105Y-111857581D02*
X184251105Y-110857581D01*
X184632058Y-110857581D01*
X184727296Y-110905200D01*
X184774915Y-110952819D01*
X184822534Y-111048057D01*
X184822534Y-111190914D01*
X184774915Y-111286152D01*
X184727296Y-111333771D01*
X184632058Y-111381390D01*
X184251105Y-111381390D01*
X185298724Y-111857581D02*
X185489200Y-111857581D01*
X185584439Y-111809962D01*
X185632058Y-111762343D01*
X185727296Y-111619486D01*
X185774915Y-111429010D01*
X185774915Y-111048057D01*
X185727296Y-110952819D01*
X185679677Y-110905200D01*
X185584439Y-110857581D01*
X185393962Y-110857581D01*
X185298724Y-110905200D01*
X185251105Y-110952819D01*
X185203486Y-111048057D01*
X185203486Y-111286152D01*
X185251105Y-111381390D01*
X185298724Y-111429010D01*
X185393962Y-111476629D01*
X185584439Y-111476629D01*
X185679677Y-111429010D01*
X185727296Y-111381390D01*
X185774915Y-111286152D01*
X140306343Y-116255981D02*
X139973009Y-115779790D01*
X139734914Y-116255981D02*
X139734914Y-115255981D01*
X140115867Y-115255981D01*
X140211105Y-115303600D01*
X140258724Y-115351219D01*
X140306343Y-115446457D01*
X140306343Y-115589314D01*
X140258724Y-115684552D01*
X140211105Y-115732171D01*
X140115867Y-115779790D01*
X139734914Y-115779790D01*
X141258724Y-116255981D02*
X140687295Y-116255981D01*
X140973009Y-116255981D02*
X140973009Y-115255981D01*
X140877771Y-115398838D01*
X140782533Y-115494076D01*
X140687295Y-115541695D01*
X141877771Y-115255981D02*
X141973010Y-115255981D01*
X142068248Y-115303600D01*
X142115867Y-115351219D01*
X142163486Y-115446457D01*
X142211105Y-115636933D01*
X142211105Y-115875029D01*
X142163486Y-116065505D01*
X142115867Y-116160743D01*
X142068248Y-116208362D01*
X141973010Y-116255981D01*
X141877771Y-116255981D01*
X141782533Y-116208362D01*
X141734914Y-116160743D01*
X141687295Y-116065505D01*
X141639676Y-115875029D01*
X141639676Y-115636933D01*
X141687295Y-115446457D01*
X141734914Y-115351219D01*
X141782533Y-115303600D01*
X141877771Y-115255981D01*
X161341543Y-116179581D02*
X161008209Y-115703390D01*
X160770114Y-116179581D02*
X160770114Y-115179581D01*
X161151067Y-115179581D01*
X161246305Y-115227200D01*
X161293924Y-115274819D01*
X161341543Y-115370057D01*
X161341543Y-115512914D01*
X161293924Y-115608152D01*
X161246305Y-115655771D01*
X161151067Y-115703390D01*
X160770114Y-115703390D01*
X162293924Y-116179581D02*
X161722495Y-116179581D01*
X162008209Y-116179581D02*
X162008209Y-115179581D01*
X161912971Y-115322438D01*
X161817733Y-115417676D01*
X161722495Y-115465295D01*
X163246305Y-116179581D02*
X162674876Y-116179581D01*
X162960590Y-116179581D02*
X162960590Y-115179581D01*
X162865352Y-115322438D01*
X162770114Y-115417676D01*
X162674876Y-115465295D01*
X182419943Y-116179581D02*
X182086609Y-115703390D01*
X181848514Y-116179581D02*
X181848514Y-115179581D01*
X182229467Y-115179581D01*
X182324705Y-115227200D01*
X182372324Y-115274819D01*
X182419943Y-115370057D01*
X182419943Y-115512914D01*
X182372324Y-115608152D01*
X182324705Y-115655771D01*
X182229467Y-115703390D01*
X181848514Y-115703390D01*
X183372324Y-116179581D02*
X182800895Y-116179581D01*
X183086609Y-116179581D02*
X183086609Y-115179581D01*
X182991371Y-115322438D01*
X182896133Y-115417676D01*
X182800895Y-115465295D01*
X183753276Y-115274819D02*
X183800895Y-115227200D01*
X183896133Y-115179581D01*
X184134229Y-115179581D01*
X184229467Y-115227200D01*
X184277086Y-115274819D01*
X184324705Y-115370057D01*
X184324705Y-115465295D01*
X184277086Y-115608152D01*
X183705657Y-116179581D01*
X184324705Y-116179581D01*
D10*
X186871314Y-98900057D02*
X186957028Y-98928629D01*
X187099885Y-98928629D01*
X187157028Y-98900057D01*
X187185599Y-98871486D01*
X187214171Y-98814343D01*
X187214171Y-98757200D01*
X187185599Y-98700057D01*
X187157028Y-98671486D01*
X187099885Y-98642914D01*
X186985599Y-98614343D01*
X186928457Y-98585771D01*
X186899885Y-98557200D01*
X186871314Y-98500057D01*
X186871314Y-98442914D01*
X186899885Y-98385771D01*
X186928457Y-98357200D01*
X186985599Y-98328629D01*
X187128457Y-98328629D01*
X187214171Y-98357200D01*
X187385600Y-98328629D02*
X187728457Y-98328629D01*
X187557028Y-98928629D02*
X187557028Y-98328629D01*
X187928457Y-98614343D02*
X188128457Y-98614343D01*
X188214171Y-98928629D02*
X187928457Y-98928629D01*
X187928457Y-98328629D01*
X188214171Y-98328629D01*
X188471314Y-98928629D02*
X188471314Y-98328629D01*
X188699886Y-98328629D01*
X188757028Y-98357200D01*
X188785600Y-98385771D01*
X188814171Y-98442914D01*
X188814171Y-98528629D01*
X188785600Y-98585771D01*
X188757028Y-98614343D01*
X188699886Y-98642914D01*
X188471314Y-98642914D01*
X189042743Y-98900057D02*
X189128457Y-98928629D01*
X189271314Y-98928629D01*
X189328457Y-98900057D01*
X189357028Y-98871486D01*
X189385600Y-98814343D01*
X189385600Y-98757200D01*
X189357028Y-98700057D01*
X189328457Y-98671486D01*
X189271314Y-98642914D01*
X189157028Y-98614343D01*
X189099886Y-98585771D01*
X189071314Y-98557200D01*
X189042743Y-98500057D01*
X189042743Y-98442914D01*
X189071314Y-98385771D01*
X189099886Y-98357200D01*
X189157028Y-98328629D01*
X189299886Y-98328629D01*
X189385600Y-98357200D01*
X189557029Y-98328629D02*
X189899886Y-98328629D01*
X189728457Y-98928629D02*
X189728457Y-98328629D01*
X190099886Y-98928629D02*
X190099886Y-98328629D01*
X190728457Y-98871486D02*
X190699886Y-98900057D01*
X190614172Y-98928629D01*
X190557029Y-98928629D01*
X190471314Y-98900057D01*
X190414172Y-98842914D01*
X190385600Y-98785771D01*
X190357029Y-98671486D01*
X190357029Y-98585771D01*
X190385600Y-98471486D01*
X190414172Y-98414343D01*
X190471314Y-98357200D01*
X190557029Y-98328629D01*
X190614172Y-98328629D01*
X190699886Y-98357200D01*
X190728457Y-98385771D01*
X190985600Y-98928629D02*
X190985600Y-98328629D01*
X191328457Y-98928629D02*
X191071314Y-98585771D01*
X191328457Y-98328629D02*
X190985600Y-98671486D01*
X191528457Y-98328629D02*
X191899886Y-98328629D01*
X191699886Y-98557200D01*
X191785600Y-98557200D01*
X191842743Y-98585771D01*
X191871314Y-98614343D01*
X191899886Y-98671486D01*
X191899886Y-98814343D01*
X191871314Y-98871486D01*
X191842743Y-98900057D01*
X191785600Y-98928629D01*
X191614172Y-98928629D01*
X191557029Y-98900057D01*
X191528457Y-98871486D01*
D16*
X184268619Y-120125738D02*
X184221000Y-120220976D01*
X184125762Y-120316214D01*
X183982905Y-120459071D01*
X183935286Y-120554310D01*
X183935286Y-120649548D01*
X184173381Y-120601929D02*
X184125762Y-120697167D01*
X184030524Y-120792405D01*
X183840048Y-120840024D01*
X183506714Y-120840024D01*
X183316238Y-120792405D01*
X183221000Y-120697167D01*
X183173381Y-120601929D01*
X183173381Y-120411452D01*
X183221000Y-120316214D01*
X183316238Y-120220976D01*
X183506714Y-120173357D01*
X183840048Y-120173357D01*
X184030524Y-120220976D01*
X184125762Y-120316214D01*
X184173381Y-120411452D01*
X184173381Y-120601929D01*
X184173381Y-119220976D02*
X184173381Y-119792405D01*
X184173381Y-119506691D02*
X183173381Y-119506691D01*
X183316238Y-119601929D01*
X183411476Y-119697167D01*
X183459095Y-119792405D01*
D21*
X167755286Y-124744619D02*
X167174715Y-124744619D01*
X167465001Y-124744619D02*
X167465001Y-123728619D01*
X167368239Y-123873762D01*
X167271477Y-123970524D01*
X167174715Y-124018905D01*
M02*
