G04 #@! TF.FileFunction,Soldermask,Top*
%FSLAX46Y46*%
G04 Gerber Fmt 4.6, Leading zero omitted, Abs format (unit mm)*
G04 Created by KiCad (PCBNEW 4.0.2-stable) date 10/3/2017 10:25:22 PM*
%MOMM*%
G01*
G04 APERTURE LIST*
%ADD10C,0.100000*%
%ADD11O,2.279600X2.279600*%
%ADD12O,1.924000X1.924000*%
%ADD13R,3.999180X2.000200*%
%ADD14R,1.600000X1.600000*%
%ADD15C,2.900000*%
%ADD16R,1.300000X1.200000*%
%ADD17R,1.200000X1.300000*%
%ADD18C,6.100000*%
%ADD19R,1.000000X1.950000*%
G04 APERTURE END LIST*
D10*
D11*
X159639000Y-123317000D03*
X159639000Y-125857000D03*
X157099000Y-123317000D03*
X157099000Y-125857000D03*
X154559000Y-123317000D03*
X154559000Y-125857000D03*
X152019000Y-123317000D03*
X152019000Y-125857000D03*
D12*
X143690000Y-100650000D03*
X141150000Y-100650000D03*
X138610000Y-100650000D03*
X146230000Y-100650000D03*
X148770000Y-100650000D03*
X151310000Y-100650000D03*
X156390000Y-100650000D03*
X153850000Y-100650000D03*
X153850000Y-113350000D03*
X156390000Y-113350000D03*
X151310000Y-113350000D03*
X148770000Y-113350000D03*
X138610000Y-113350000D03*
X141150000Y-113350000D03*
X143690000Y-113350000D03*
X146230000Y-113350000D03*
X164690000Y-100650000D03*
X162150000Y-100650000D03*
X159610000Y-100650000D03*
X167230000Y-100650000D03*
X169770000Y-100650000D03*
X172310000Y-100650000D03*
X177390000Y-100650000D03*
X174850000Y-100650000D03*
X174850000Y-113350000D03*
X177390000Y-113350000D03*
X172310000Y-113350000D03*
X169770000Y-113350000D03*
X159610000Y-113350000D03*
X162150000Y-113350000D03*
X164690000Y-113350000D03*
X167230000Y-113350000D03*
D11*
X143891000Y-123317000D03*
X143891000Y-125857000D03*
X141351000Y-123317000D03*
X141351000Y-125857000D03*
X138811000Y-123317000D03*
X138811000Y-125857000D03*
X136271000Y-123317000D03*
X136271000Y-125857000D03*
X133731000Y-123317000D03*
X133731000Y-125857000D03*
D13*
X136749180Y-105750000D03*
X142250820Y-105750000D03*
X157749180Y-105750000D03*
X163250820Y-105750000D03*
X178749180Y-105750000D03*
X184250820Y-105750000D03*
D14*
X189000000Y-128100000D03*
X189000000Y-125900000D03*
X191250000Y-128100000D03*
X191250000Y-125900000D03*
D12*
X188500000Y-120250000D03*
X188500000Y-122790000D03*
X191500000Y-120250000D03*
X191500000Y-122790000D03*
X167513000Y-127635000D03*
X170053000Y-127635000D03*
X172593000Y-127635000D03*
X175133000Y-127635000D03*
X146960000Y-107020000D03*
X146960000Y-104480000D03*
X149500000Y-107020000D03*
X149500000Y-104480000D03*
X152040000Y-107020000D03*
X152040000Y-104480000D03*
X167960000Y-107020000D03*
X167960000Y-104480000D03*
X170500000Y-107020000D03*
X170500000Y-104480000D03*
X173040000Y-107020000D03*
X173040000Y-104480000D03*
X188960000Y-107020000D03*
X188960000Y-104480000D03*
X191500000Y-107020000D03*
X191500000Y-104480000D03*
X194040000Y-107020000D03*
X194040000Y-104480000D03*
X143800000Y-97600000D03*
X146340000Y-97600000D03*
X148880000Y-97600000D03*
X151420000Y-97600000D03*
X164800000Y-97600000D03*
X167340000Y-97600000D03*
X169880000Y-97600000D03*
X172420000Y-97600000D03*
X185800000Y-97600000D03*
X188340000Y-97600000D03*
X190880000Y-97600000D03*
X193420000Y-97600000D03*
D15*
X206250000Y-112250000D03*
X206250000Y-107250000D03*
D16*
X179500000Y-126250000D03*
X179500000Y-127750000D03*
X177750000Y-126250000D03*
X177750000Y-127750000D03*
X179500000Y-123250000D03*
X179500000Y-124750000D03*
X177750000Y-123250000D03*
X177750000Y-124750000D03*
X187000000Y-125500000D03*
X187000000Y-127000000D03*
X193250000Y-125500000D03*
X193250000Y-127000000D03*
D17*
X139750000Y-111250000D03*
X141250000Y-111250000D03*
X160750000Y-111250000D03*
X162250000Y-111250000D03*
X181750000Y-111250000D03*
X183250000Y-111250000D03*
X137250000Y-115750000D03*
X138750000Y-115750000D03*
X159750000Y-115750000D03*
X158250000Y-115750000D03*
X180750000Y-115750000D03*
X179250000Y-115750000D03*
D18*
X206000000Y-99000000D03*
X134000000Y-99000000D03*
D12*
X185690000Y-100650000D03*
X183150000Y-100650000D03*
X180610000Y-100650000D03*
X188230000Y-100650000D03*
X190770000Y-100650000D03*
X193310000Y-100650000D03*
X198390000Y-100650000D03*
X195850000Y-100650000D03*
X195850000Y-113350000D03*
X198390000Y-113350000D03*
X193310000Y-113350000D03*
X190770000Y-113350000D03*
X180610000Y-113350000D03*
X183150000Y-113350000D03*
X185690000Y-113350000D03*
X188230000Y-113350000D03*
D19*
X181595000Y-127450000D03*
X182865000Y-127450000D03*
X184135000Y-127450000D03*
X185405000Y-127450000D03*
X185405000Y-122050000D03*
X184135000Y-122050000D03*
X182865000Y-122050000D03*
X181595000Y-122050000D03*
D11*
X167465000Y-122126000D03*
X167465000Y-119586000D03*
X170005000Y-122126000D03*
X170005000Y-119586000D03*
X172545000Y-122126000D03*
X172545000Y-119586000D03*
X175085000Y-122126000D03*
X175085000Y-119586000D03*
D12*
X167465000Y-124666000D03*
X170005000Y-124666000D03*
X172545000Y-124666000D03*
X175085000Y-124666000D03*
M02*
