G04 #@! TF.FileFunction,Copper,L2,Bot,Signal*
%FSLAX46Y46*%
G04 Gerber Fmt 4.6, Leading zero omitted, Abs format (unit mm)*
G04 Created by KiCad (PCBNEW 4.0.2-stable) date 10/3/2017 10:25:22 PM*
%MOMM*%
G01*
G04 APERTURE LIST*
%ADD10C,0.100000*%
%ADD11O,1.879600X1.879600*%
%ADD12O,1.524000X1.524000*%
%ADD13C,2.500000*%
%ADD14C,5.700000*%
%ADD15C,0.600000*%
%ADD16C,1.270000*%
%ADD17C,0.254000*%
%ADD18C,0.203200*%
%ADD19C,0.508000*%
%ADD20C,0.304800*%
G04 APERTURE END LIST*
D10*
D11*
X159639000Y-123317000D03*
X159639000Y-125857000D03*
X157099000Y-123317000D03*
X157099000Y-125857000D03*
X154559000Y-123317000D03*
X154559000Y-125857000D03*
X152019000Y-123317000D03*
X152019000Y-125857000D03*
D12*
X143690000Y-100650000D03*
X141150000Y-100650000D03*
X138610000Y-100650000D03*
X146230000Y-100650000D03*
X148770000Y-100650000D03*
X151310000Y-100650000D03*
X156390000Y-100650000D03*
X153850000Y-100650000D03*
X153850000Y-113350000D03*
X156390000Y-113350000D03*
X151310000Y-113350000D03*
X148770000Y-113350000D03*
X138610000Y-113350000D03*
X141150000Y-113350000D03*
X143690000Y-113350000D03*
X146230000Y-113350000D03*
X164690000Y-100650000D03*
X162150000Y-100650000D03*
X159610000Y-100650000D03*
X167230000Y-100650000D03*
X169770000Y-100650000D03*
X172310000Y-100650000D03*
X177390000Y-100650000D03*
X174850000Y-100650000D03*
X174850000Y-113350000D03*
X177390000Y-113350000D03*
X172310000Y-113350000D03*
X169770000Y-113350000D03*
X159610000Y-113350000D03*
X162150000Y-113350000D03*
X164690000Y-113350000D03*
X167230000Y-113350000D03*
D11*
X143891000Y-123317000D03*
X143891000Y-125857000D03*
X141351000Y-123317000D03*
X141351000Y-125857000D03*
X138811000Y-123317000D03*
X138811000Y-125857000D03*
X136271000Y-123317000D03*
X136271000Y-125857000D03*
X133731000Y-123317000D03*
X133731000Y-125857000D03*
D12*
X188500000Y-120250000D03*
X188500000Y-122790000D03*
X191500000Y-120250000D03*
X191500000Y-122790000D03*
X167513000Y-127635000D03*
X170053000Y-127635000D03*
X172593000Y-127635000D03*
X175133000Y-127635000D03*
X146960000Y-107020000D03*
X146960000Y-104480000D03*
X149500000Y-107020000D03*
X149500000Y-104480000D03*
X152040000Y-107020000D03*
X152040000Y-104480000D03*
X167960000Y-107020000D03*
X167960000Y-104480000D03*
X170500000Y-107020000D03*
X170500000Y-104480000D03*
X173040000Y-107020000D03*
X173040000Y-104480000D03*
X188960000Y-107020000D03*
X188960000Y-104480000D03*
X191500000Y-107020000D03*
X191500000Y-104480000D03*
X194040000Y-107020000D03*
X194040000Y-104480000D03*
X143800000Y-97600000D03*
X146340000Y-97600000D03*
X148880000Y-97600000D03*
X151420000Y-97600000D03*
X164800000Y-97600000D03*
X167340000Y-97600000D03*
X169880000Y-97600000D03*
X172420000Y-97600000D03*
X185800000Y-97600000D03*
X188340000Y-97600000D03*
X190880000Y-97600000D03*
X193420000Y-97600000D03*
D13*
X206250000Y-112250000D03*
X206250000Y-107250000D03*
D14*
X206000000Y-99000000D03*
X134000000Y-99000000D03*
D12*
X185690000Y-100650000D03*
X183150000Y-100650000D03*
X180610000Y-100650000D03*
X188230000Y-100650000D03*
X190770000Y-100650000D03*
X193310000Y-100650000D03*
X198390000Y-100650000D03*
X195850000Y-100650000D03*
X195850000Y-113350000D03*
X198390000Y-113350000D03*
X193310000Y-113350000D03*
X190770000Y-113350000D03*
X180610000Y-113350000D03*
X183150000Y-113350000D03*
X185690000Y-113350000D03*
X188230000Y-113350000D03*
D11*
X167465000Y-122126000D03*
X167465000Y-119586000D03*
X170005000Y-122126000D03*
X170005000Y-119586000D03*
X172545000Y-122126000D03*
X172545000Y-119586000D03*
X175085000Y-122126000D03*
X175085000Y-119586000D03*
D12*
X167465000Y-124666000D03*
X170005000Y-124666000D03*
X172545000Y-124666000D03*
X175085000Y-124666000D03*
D15*
X176600000Y-126300000D03*
X180400000Y-111300000D03*
X159400000Y-111200000D03*
X138300000Y-111300000D03*
X177700000Y-121900000D03*
X184102000Y-125428000D03*
X187150000Y-128222000D03*
D16*
X180610000Y-100650000D02*
X180610000Y-109000000D01*
X180600000Y-108600000D02*
X180600000Y-109000000D01*
X180600000Y-108990000D02*
X180600000Y-108600000D01*
X180610000Y-109000000D02*
X180600000Y-108990000D01*
X159610000Y-100650000D02*
X159610000Y-109000000D01*
X159500000Y-108900000D02*
X159500000Y-109000000D01*
X159510000Y-108900000D02*
X159500000Y-108900000D01*
X159610000Y-109000000D02*
X159510000Y-108900000D01*
X206250000Y-107250000D02*
X198250000Y-107250000D01*
X196500000Y-109000000D02*
X180600000Y-109000000D01*
X198250000Y-107250000D02*
X196500000Y-109000000D01*
X180600000Y-109000000D02*
X159500000Y-109000000D01*
X138610000Y-107810000D02*
X138610000Y-100650000D01*
X159500000Y-109000000D02*
X139800000Y-109000000D01*
X139800000Y-109000000D02*
X138610000Y-107810000D01*
D17*
X176600000Y-126300000D02*
X176600000Y-126600000D01*
X157099000Y-128599000D02*
X157099000Y-125857000D01*
X157500000Y-129000000D02*
X157099000Y-128599000D01*
X177500000Y-129000000D02*
X157500000Y-129000000D01*
X177500000Y-127500000D02*
X177500000Y-129000000D01*
X176600000Y-126600000D02*
X177500000Y-127500000D01*
D18*
X156845000Y-125857000D02*
X156850600Y-125857000D01*
D19*
X156845000Y-123317000D02*
X156845000Y-122713000D01*
D18*
X175100000Y-118850000D02*
X175100000Y-119444000D01*
D17*
X179657000Y-126698000D02*
X175085000Y-122126000D01*
X185626000Y-126698000D02*
X179657000Y-126698000D01*
X187150000Y-128222000D02*
X185626000Y-126698000D01*
D20*
X138811000Y-123317000D02*
X138811000Y-122589000D01*
X138811000Y-122589000D02*
X145200000Y-116200000D01*
X151000000Y-116200000D02*
X153850000Y-113350000D01*
X145200000Y-116200000D02*
X151000000Y-116200000D01*
X141351000Y-123317000D02*
X141351000Y-121949000D01*
X152540000Y-117200000D02*
X156390000Y-113350000D01*
X146100000Y-117200000D02*
X152540000Y-117200000D01*
X141351000Y-121949000D02*
X146100000Y-117200000D01*
D18*
X138811000Y-125857000D02*
X138816600Y-125857000D01*
X138300000Y-125857000D02*
X138300000Y-125850000D01*
X136271000Y-125857000D02*
X136378200Y-125857000D01*
X136271000Y-125857000D02*
X136556000Y-125857000D01*
X135760000Y-125857000D02*
X135943000Y-125857000D01*
D16*
X143690000Y-100650000D02*
X143690000Y-97710000D01*
X143690000Y-97710000D02*
X143800000Y-97600000D01*
X146230000Y-100650000D02*
X146230000Y-97710000D01*
X146230000Y-97710000D02*
X146340000Y-97600000D01*
X148770000Y-100650000D02*
X148770000Y-97710000D01*
X148770000Y-97710000D02*
X148880000Y-97600000D01*
X151310000Y-100650000D02*
X151310000Y-97710000D01*
X151310000Y-97710000D02*
X151420000Y-97600000D01*
X164690000Y-100650000D02*
X164690000Y-97710000D01*
X164690000Y-97710000D02*
X164800000Y-97600000D01*
X167230000Y-100650000D02*
X167230000Y-97710000D01*
X167230000Y-97710000D02*
X167340000Y-97600000D01*
X169770000Y-100650000D02*
X169770000Y-97710000D01*
X169770000Y-97710000D02*
X169880000Y-97600000D01*
X172310000Y-100650000D02*
X172310000Y-97710000D01*
X172310000Y-97710000D02*
X172420000Y-97600000D01*
X185690000Y-100650000D02*
X185690000Y-97710000D01*
X185690000Y-97710000D02*
X185800000Y-97600000D01*
X188230000Y-100650000D02*
X188230000Y-97710000D01*
X188230000Y-97710000D02*
X188340000Y-97600000D01*
X190770000Y-100650000D02*
X190770000Y-97710000D01*
X190770000Y-97710000D02*
X190880000Y-97600000D01*
X193310000Y-100650000D02*
X193310000Y-97710000D01*
X193310000Y-97710000D02*
X193420000Y-97600000D01*
D18*
X154559000Y-125857000D02*
X154559000Y-125811800D01*
X152019000Y-123317000D02*
X152019000Y-122814600D01*
X154559000Y-123317000D02*
X154559000Y-122865400D01*
X154559000Y-123317000D02*
X154559000Y-122509800D01*
D17*
G36*
X143168190Y-96042330D02*
X142632567Y-96400222D01*
X142274675Y-96935845D01*
X142149000Y-97567655D01*
X142149000Y-97632345D01*
X142166000Y-97717810D01*
X142166000Y-99721175D01*
X141864997Y-99449826D01*
X141493070Y-99295780D01*
X141277000Y-99418280D01*
X141277000Y-100523000D01*
X141297000Y-100523000D01*
X141297000Y-100777000D01*
X141277000Y-100777000D01*
X141277000Y-101881720D01*
X141493070Y-102004220D01*
X141864997Y-101850174D01*
X142269858Y-101485199D01*
X142273647Y-101477243D01*
X142522567Y-101849778D01*
X143058190Y-102207670D01*
X143690000Y-102333345D01*
X144321810Y-102207670D01*
X144857433Y-101849778D01*
X144960000Y-101696276D01*
X145062567Y-101849778D01*
X145598190Y-102207670D01*
X146230000Y-102333345D01*
X146861810Y-102207670D01*
X147397433Y-101849778D01*
X147500000Y-101696276D01*
X147602567Y-101849778D01*
X148138190Y-102207670D01*
X148770000Y-102333345D01*
X149401810Y-102207670D01*
X149937433Y-101849778D01*
X150040000Y-101696276D01*
X150142567Y-101849778D01*
X150678190Y-102207670D01*
X151310000Y-102333345D01*
X151941810Y-102207670D01*
X152477433Y-101849778D01*
X152580000Y-101696276D01*
X152682567Y-101849778D01*
X153218190Y-102207670D01*
X153850000Y-102333345D01*
X154481810Y-102207670D01*
X155017433Y-101849778D01*
X155266353Y-101477243D01*
X155270142Y-101485199D01*
X155675003Y-101850174D01*
X156046930Y-102004220D01*
X156263000Y-101881720D01*
X156263000Y-100777000D01*
X156517000Y-100777000D01*
X156517000Y-101881720D01*
X156733070Y-102004220D01*
X157104997Y-101850174D01*
X157509858Y-101485199D01*
X157744231Y-100993072D01*
X157622476Y-100777000D01*
X156517000Y-100777000D01*
X156263000Y-100777000D01*
X156243000Y-100777000D01*
X156243000Y-100523000D01*
X156263000Y-100523000D01*
X156263000Y-99418280D01*
X156517000Y-99418280D01*
X156517000Y-100523000D01*
X157622476Y-100523000D01*
X157744231Y-100306928D01*
X157509858Y-99814801D01*
X157104997Y-99449826D01*
X156733070Y-99295780D01*
X156517000Y-99418280D01*
X156263000Y-99418280D01*
X156046930Y-99295780D01*
X155675003Y-99449826D01*
X155270142Y-99814801D01*
X155266353Y-99822757D01*
X155017433Y-99450222D01*
X154481810Y-99092330D01*
X153850000Y-98966655D01*
X153218190Y-99092330D01*
X152834000Y-99349038D01*
X152834000Y-98430765D01*
X152945325Y-98264155D01*
X153071000Y-97632345D01*
X153071000Y-97567655D01*
X152945325Y-96935845D01*
X152587433Y-96400222D01*
X152051810Y-96042330D01*
X151658019Y-95964000D01*
X164561981Y-95964000D01*
X164168190Y-96042330D01*
X163632567Y-96400222D01*
X163274675Y-96935845D01*
X163149000Y-97567655D01*
X163149000Y-97632345D01*
X163166000Y-97717810D01*
X163166000Y-99721175D01*
X162864997Y-99449826D01*
X162493070Y-99295780D01*
X162277000Y-99418280D01*
X162277000Y-100523000D01*
X162297000Y-100523000D01*
X162297000Y-100777000D01*
X162277000Y-100777000D01*
X162277000Y-101881720D01*
X162493070Y-102004220D01*
X162864997Y-101850174D01*
X163269858Y-101485199D01*
X163273647Y-101477243D01*
X163522567Y-101849778D01*
X164058190Y-102207670D01*
X164690000Y-102333345D01*
X165321810Y-102207670D01*
X165857433Y-101849778D01*
X165960000Y-101696276D01*
X166062567Y-101849778D01*
X166598190Y-102207670D01*
X167230000Y-102333345D01*
X167861810Y-102207670D01*
X168397433Y-101849778D01*
X168500000Y-101696276D01*
X168602567Y-101849778D01*
X169138190Y-102207670D01*
X169770000Y-102333345D01*
X170401810Y-102207670D01*
X170937433Y-101849778D01*
X171040000Y-101696276D01*
X171142567Y-101849778D01*
X171678190Y-102207670D01*
X172310000Y-102333345D01*
X172941810Y-102207670D01*
X173477433Y-101849778D01*
X173580000Y-101696276D01*
X173682567Y-101849778D01*
X174218190Y-102207670D01*
X174850000Y-102333345D01*
X175481810Y-102207670D01*
X176017433Y-101849778D01*
X176266353Y-101477243D01*
X176270142Y-101485199D01*
X176675003Y-101850174D01*
X177046930Y-102004220D01*
X177263000Y-101881720D01*
X177263000Y-100777000D01*
X177517000Y-100777000D01*
X177517000Y-101881720D01*
X177733070Y-102004220D01*
X178104997Y-101850174D01*
X178509858Y-101485199D01*
X178744231Y-100993072D01*
X178622476Y-100777000D01*
X177517000Y-100777000D01*
X177263000Y-100777000D01*
X177243000Y-100777000D01*
X177243000Y-100523000D01*
X177263000Y-100523000D01*
X177263000Y-99418280D01*
X177517000Y-99418280D01*
X177517000Y-100523000D01*
X178622476Y-100523000D01*
X178744231Y-100306928D01*
X178509858Y-99814801D01*
X178104997Y-99449826D01*
X177733070Y-99295780D01*
X177517000Y-99418280D01*
X177263000Y-99418280D01*
X177046930Y-99295780D01*
X176675003Y-99449826D01*
X176270142Y-99814801D01*
X176266353Y-99822757D01*
X176017433Y-99450222D01*
X175481810Y-99092330D01*
X174850000Y-98966655D01*
X174218190Y-99092330D01*
X173834000Y-99349038D01*
X173834000Y-98430765D01*
X173945325Y-98264155D01*
X174071000Y-97632345D01*
X174071000Y-97567655D01*
X173945325Y-96935845D01*
X173587433Y-96400222D01*
X173051810Y-96042330D01*
X172658019Y-95964000D01*
X185561981Y-95964000D01*
X185168190Y-96042330D01*
X184632567Y-96400222D01*
X184274675Y-96935845D01*
X184149000Y-97567655D01*
X184149000Y-97632345D01*
X184166000Y-97717810D01*
X184166000Y-99721175D01*
X183864997Y-99449826D01*
X183493070Y-99295780D01*
X183277000Y-99418280D01*
X183277000Y-100523000D01*
X183297000Y-100523000D01*
X183297000Y-100777000D01*
X183277000Y-100777000D01*
X183277000Y-101881720D01*
X183493070Y-102004220D01*
X183864997Y-101850174D01*
X184269858Y-101485199D01*
X184273647Y-101477243D01*
X184522567Y-101849778D01*
X185058190Y-102207670D01*
X185690000Y-102333345D01*
X186321810Y-102207670D01*
X186857433Y-101849778D01*
X186960000Y-101696276D01*
X187062567Y-101849778D01*
X187598190Y-102207670D01*
X188230000Y-102333345D01*
X188861810Y-102207670D01*
X189397433Y-101849778D01*
X189500000Y-101696276D01*
X189602567Y-101849778D01*
X190138190Y-102207670D01*
X190770000Y-102333345D01*
X191401810Y-102207670D01*
X191937433Y-101849778D01*
X192040000Y-101696276D01*
X192142567Y-101849778D01*
X192678190Y-102207670D01*
X193310000Y-102333345D01*
X193941810Y-102207670D01*
X194477433Y-101849778D01*
X194580000Y-101696276D01*
X194682567Y-101849778D01*
X195218190Y-102207670D01*
X195850000Y-102333345D01*
X196481810Y-102207670D01*
X197017433Y-101849778D01*
X197266353Y-101477243D01*
X197270142Y-101485199D01*
X197675003Y-101850174D01*
X198046930Y-102004220D01*
X198263000Y-101881720D01*
X198263000Y-100777000D01*
X198517000Y-100777000D01*
X198517000Y-101881720D01*
X198733070Y-102004220D01*
X199104997Y-101850174D01*
X199509858Y-101485199D01*
X199744231Y-100993072D01*
X199622476Y-100777000D01*
X198517000Y-100777000D01*
X198263000Y-100777000D01*
X198243000Y-100777000D01*
X198243000Y-100523000D01*
X198263000Y-100523000D01*
X198263000Y-99418280D01*
X198517000Y-99418280D01*
X198517000Y-100523000D01*
X199622476Y-100523000D01*
X199744231Y-100306928D01*
X199509858Y-99814801D01*
X199104997Y-99449826D01*
X198733070Y-99295780D01*
X198517000Y-99418280D01*
X198263000Y-99418280D01*
X198046930Y-99295780D01*
X197675003Y-99449826D01*
X197270142Y-99814801D01*
X197266353Y-99822757D01*
X197017433Y-99450222D01*
X196481810Y-99092330D01*
X195850000Y-98966655D01*
X195218190Y-99092330D01*
X194834000Y-99349038D01*
X194834000Y-98430765D01*
X194945325Y-98264155D01*
X195071000Y-97632345D01*
X195071000Y-97567655D01*
X194945325Y-96935845D01*
X194587433Y-96400222D01*
X194051810Y-96042330D01*
X193658019Y-95964000D01*
X203029890Y-95964000D01*
X202401668Y-96591127D01*
X201753738Y-98151513D01*
X201752264Y-99841074D01*
X202397469Y-101402590D01*
X203591127Y-102598332D01*
X205151513Y-103246262D01*
X206841074Y-103247736D01*
X208402590Y-102602531D01*
X209036000Y-101970225D01*
X209036000Y-120905056D01*
X209015812Y-121006549D01*
X209012102Y-121012101D01*
X209006549Y-121015812D01*
X208905056Y-121036000D01*
X196000000Y-121036000D01*
X195906878Y-121054523D01*
X195811934Y-121054523D01*
X195429251Y-121130643D01*
X195429250Y-121130643D01*
X195081747Y-121274583D01*
X194757324Y-121491356D01*
X194491356Y-121757323D01*
X194491356Y-121757324D01*
X194274583Y-122081748D01*
X194130644Y-122429249D01*
X194130643Y-122429251D01*
X194054523Y-122811934D01*
X194054523Y-122906878D01*
X194036000Y-123000000D01*
X194036000Y-128905056D01*
X194015812Y-129006549D01*
X194012102Y-129012101D01*
X194006549Y-129015812D01*
X193905056Y-129036000D01*
X188017547Y-129036000D01*
X188157397Y-128896394D01*
X188338793Y-128459544D01*
X188339206Y-127986531D01*
X188158573Y-127549365D01*
X187824394Y-127214603D01*
X187405506Y-127040666D01*
X186344420Y-125979580D01*
X186014807Y-125759338D01*
X185950300Y-125746507D01*
X185626000Y-125682000D01*
X180077841Y-125682000D01*
X176878653Y-122482813D01*
X176949628Y-122126000D01*
X176810419Y-121426149D01*
X176413985Y-120832843D01*
X176180307Y-120676704D01*
X176429546Y-120405890D01*
X176494114Y-120250000D01*
X186816655Y-120250000D01*
X186942330Y-120881810D01*
X187300222Y-121417433D01*
X187453724Y-121520000D01*
X187300222Y-121622567D01*
X186942330Y-122158190D01*
X186816655Y-122790000D01*
X186942330Y-123421810D01*
X187300222Y-123957433D01*
X187835845Y-124315325D01*
X188467655Y-124441000D01*
X188532345Y-124441000D01*
X189164155Y-124315325D01*
X189699778Y-123957433D01*
X190000000Y-123508119D01*
X190300222Y-123957433D01*
X190835845Y-124315325D01*
X191467655Y-124441000D01*
X191532345Y-124441000D01*
X192164155Y-124315325D01*
X192699778Y-123957433D01*
X193057670Y-123421810D01*
X193183345Y-122790000D01*
X193057670Y-122158190D01*
X192699778Y-121622567D01*
X192546276Y-121520000D01*
X192699778Y-121417433D01*
X193057670Y-120881810D01*
X193183345Y-120250000D01*
X193057670Y-119618190D01*
X192699778Y-119082567D01*
X192164155Y-118724675D01*
X191532345Y-118599000D01*
X191467655Y-118599000D01*
X190835845Y-118724675D01*
X190300222Y-119082567D01*
X190000000Y-119531881D01*
X189699778Y-119082567D01*
X189164155Y-118724675D01*
X188532345Y-118599000D01*
X188467655Y-118599000D01*
X187835845Y-118724675D01*
X187300222Y-119082567D01*
X186942330Y-119618190D01*
X186816655Y-120250000D01*
X176494114Y-120250000D01*
X176615479Y-119956987D01*
X176495343Y-119713000D01*
X175212000Y-119713000D01*
X175212000Y-119733000D01*
X174958000Y-119733000D01*
X174958000Y-119713000D01*
X172672000Y-119713000D01*
X172672000Y-119733000D01*
X172418000Y-119733000D01*
X172418000Y-119713000D01*
X170132000Y-119713000D01*
X170132000Y-119733000D01*
X169878000Y-119733000D01*
X169878000Y-119713000D01*
X167592000Y-119713000D01*
X167592000Y-119733000D01*
X167338000Y-119733000D01*
X167338000Y-119713000D01*
X166054657Y-119713000D01*
X165934521Y-119956987D01*
X166120454Y-120405890D01*
X166369693Y-120676704D01*
X166136015Y-120832843D01*
X165739581Y-121426149D01*
X165600372Y-122126000D01*
X165739581Y-122825851D01*
X166136015Y-123419157D01*
X166269444Y-123508311D01*
X165939675Y-124001845D01*
X165814000Y-124633655D01*
X165814000Y-124698345D01*
X165939675Y-125330155D01*
X166297567Y-125865778D01*
X166747683Y-126166536D01*
X166345567Y-126435222D01*
X165987675Y-126970845D01*
X165862000Y-127602655D01*
X165862000Y-127667345D01*
X165987675Y-128299155D01*
X166345567Y-128834778D01*
X166646717Y-129036000D01*
X132094946Y-129036000D01*
X131610766Y-128939691D01*
X131280791Y-128719209D01*
X131060309Y-128389234D01*
X130964000Y-127905054D01*
X130964000Y-123317000D01*
X131866372Y-123317000D01*
X132005581Y-124016851D01*
X132386542Y-124587000D01*
X132005581Y-125157149D01*
X131866372Y-125857000D01*
X132005581Y-126556851D01*
X132402015Y-127150157D01*
X132995321Y-127546591D01*
X133695172Y-127685800D01*
X133766828Y-127685800D01*
X134466679Y-127546591D01*
X135001000Y-127189569D01*
X135535321Y-127546591D01*
X136235172Y-127685800D01*
X136306828Y-127685800D01*
X137006679Y-127546591D01*
X137541000Y-127189569D01*
X138075321Y-127546591D01*
X138775172Y-127685800D01*
X138846828Y-127685800D01*
X139546679Y-127546591D01*
X140081000Y-127189569D01*
X140615321Y-127546591D01*
X141315172Y-127685800D01*
X141386828Y-127685800D01*
X142086679Y-127546591D01*
X142679985Y-127150157D01*
X142807029Y-126960021D01*
X142962560Y-127129015D01*
X143520012Y-127387487D01*
X143764000Y-127267930D01*
X143764000Y-125984000D01*
X144018000Y-125984000D01*
X144018000Y-127267930D01*
X144261988Y-127387487D01*
X144819440Y-127129015D01*
X145235546Y-126676890D01*
X145421479Y-126227987D01*
X145301343Y-125984000D01*
X144018000Y-125984000D01*
X143764000Y-125984000D01*
X143744000Y-125984000D01*
X143744000Y-125730000D01*
X143764000Y-125730000D01*
X143764000Y-125710000D01*
X144018000Y-125710000D01*
X144018000Y-125730000D01*
X145301343Y-125730000D01*
X145421479Y-125486013D01*
X145235546Y-125037110D01*
X144986307Y-124766296D01*
X145219985Y-124610157D01*
X145616419Y-124016851D01*
X145755628Y-123317000D01*
X150154372Y-123317000D01*
X150293581Y-124016851D01*
X150674542Y-124587000D01*
X150293581Y-125157149D01*
X150154372Y-125857000D01*
X150293581Y-126556851D01*
X150690015Y-127150157D01*
X151283321Y-127546591D01*
X151983172Y-127685800D01*
X152054828Y-127685800D01*
X152754679Y-127546591D01*
X153289000Y-127189569D01*
X153823321Y-127546591D01*
X154523172Y-127685800D01*
X154594828Y-127685800D01*
X155294679Y-127546591D01*
X155887985Y-127150157D01*
X156015029Y-126960021D01*
X156170560Y-127129015D01*
X156728012Y-127387487D01*
X156972000Y-127267930D01*
X156972000Y-125984000D01*
X156952000Y-125984000D01*
X156952000Y-125730000D01*
X156972000Y-125730000D01*
X156972000Y-123444000D01*
X156952000Y-123444000D01*
X156952000Y-123190000D01*
X156972000Y-123190000D01*
X156972000Y-121906070D01*
X157226000Y-121906070D01*
X157226000Y-123190000D01*
X157246000Y-123190000D01*
X157246000Y-123444000D01*
X157226000Y-123444000D01*
X157226000Y-125730000D01*
X157246000Y-125730000D01*
X157246000Y-125984000D01*
X157226000Y-125984000D01*
X157226000Y-127267930D01*
X157469988Y-127387487D01*
X158027440Y-127129015D01*
X158182971Y-126960021D01*
X158310015Y-127150157D01*
X158903321Y-127546591D01*
X159603172Y-127685800D01*
X159674828Y-127685800D01*
X160374679Y-127546591D01*
X160967985Y-127150157D01*
X161364419Y-126556851D01*
X161503628Y-125857000D01*
X161364419Y-125157149D01*
X160983458Y-124587000D01*
X161364419Y-124016851D01*
X161503628Y-123317000D01*
X161364419Y-122617149D01*
X160967985Y-122023843D01*
X160374679Y-121627409D01*
X159674828Y-121488200D01*
X159603172Y-121488200D01*
X158903321Y-121627409D01*
X158310015Y-122023843D01*
X158182971Y-122213979D01*
X158027440Y-122044985D01*
X157469988Y-121786513D01*
X157226000Y-121906070D01*
X156972000Y-121906070D01*
X156728012Y-121786513D01*
X156170560Y-122044985D01*
X156015029Y-122213979D01*
X155887985Y-122023843D01*
X155294679Y-121627409D01*
X154594828Y-121488200D01*
X154523172Y-121488200D01*
X153823321Y-121627409D01*
X153289000Y-121984431D01*
X152754679Y-121627409D01*
X152054828Y-121488200D01*
X151983172Y-121488200D01*
X151283321Y-121627409D01*
X150690015Y-122023843D01*
X150293581Y-122617149D01*
X150154372Y-123317000D01*
X145755628Y-123317000D01*
X145616419Y-122617149D01*
X145219985Y-122023843D01*
X144626679Y-121627409D01*
X143926828Y-121488200D01*
X143855172Y-121488200D01*
X143155321Y-121627409D01*
X143125281Y-121647481D01*
X145557749Y-119215013D01*
X165934521Y-119215013D01*
X166054657Y-119459000D01*
X167338000Y-119459000D01*
X167338000Y-118175070D01*
X167592000Y-118175070D01*
X167592000Y-119459000D01*
X169878000Y-119459000D01*
X169878000Y-118175070D01*
X170132000Y-118175070D01*
X170132000Y-119459000D01*
X172418000Y-119459000D01*
X172418000Y-118175070D01*
X172672000Y-118175070D01*
X172672000Y-119459000D01*
X174958000Y-119459000D01*
X174958000Y-118175070D01*
X175212000Y-118175070D01*
X175212000Y-119459000D01*
X176495343Y-119459000D01*
X176615479Y-119215013D01*
X176429546Y-118766110D01*
X176013440Y-118313985D01*
X175455988Y-118055513D01*
X175212000Y-118175070D01*
X174958000Y-118175070D01*
X174714012Y-118055513D01*
X174156560Y-118313985D01*
X173815000Y-118685111D01*
X173473440Y-118313985D01*
X172915988Y-118055513D01*
X172672000Y-118175070D01*
X172418000Y-118175070D01*
X172174012Y-118055513D01*
X171616560Y-118313985D01*
X171275000Y-118685111D01*
X170933440Y-118313985D01*
X170375988Y-118055513D01*
X170132000Y-118175070D01*
X169878000Y-118175070D01*
X169634012Y-118055513D01*
X169076560Y-118313985D01*
X168735000Y-118685111D01*
X168393440Y-118313985D01*
X167835988Y-118055513D01*
X167592000Y-118175070D01*
X167338000Y-118175070D01*
X167094012Y-118055513D01*
X166536560Y-118313985D01*
X166120454Y-118766110D01*
X165934521Y-119215013D01*
X145557749Y-119215013D01*
X146531362Y-118241400D01*
X152540000Y-118241400D01*
X152938527Y-118162128D01*
X153276381Y-117936381D01*
X156214355Y-114998407D01*
X156390000Y-115033345D01*
X157021810Y-114907670D01*
X157557433Y-114549778D01*
X157915325Y-114014155D01*
X158000000Y-113588466D01*
X158084675Y-114014155D01*
X158442567Y-114549778D01*
X158978190Y-114907670D01*
X159610000Y-115033345D01*
X160241810Y-114907670D01*
X160777433Y-114549778D01*
X160880000Y-114396276D01*
X160982567Y-114549778D01*
X161518190Y-114907670D01*
X162150000Y-115033345D01*
X162781810Y-114907670D01*
X163317433Y-114549778D01*
X163420000Y-114396276D01*
X163522567Y-114549778D01*
X164058190Y-114907670D01*
X164690000Y-115033345D01*
X165321810Y-114907670D01*
X165857433Y-114549778D01*
X165960000Y-114396276D01*
X166062567Y-114549778D01*
X166598190Y-114907670D01*
X167230000Y-115033345D01*
X167861810Y-114907670D01*
X168397433Y-114549778D01*
X168500000Y-114396276D01*
X168602567Y-114549778D01*
X169138190Y-114907670D01*
X169770000Y-115033345D01*
X170401810Y-114907670D01*
X170937433Y-114549778D01*
X171040000Y-114396276D01*
X171142567Y-114549778D01*
X171678190Y-114907670D01*
X172310000Y-115033345D01*
X172941810Y-114907670D01*
X173477433Y-114549778D01*
X173580000Y-114396276D01*
X173682567Y-114549778D01*
X174218190Y-114907670D01*
X174850000Y-115033345D01*
X175481810Y-114907670D01*
X176017433Y-114549778D01*
X176120000Y-114396276D01*
X176222567Y-114549778D01*
X176758190Y-114907670D01*
X177390000Y-115033345D01*
X178021810Y-114907670D01*
X178557433Y-114549778D01*
X178915325Y-114014155D01*
X179000000Y-113588466D01*
X179084675Y-114014155D01*
X179442567Y-114549778D01*
X179978190Y-114907670D01*
X180610000Y-115033345D01*
X181241810Y-114907670D01*
X181777433Y-114549778D01*
X181880000Y-114396276D01*
X181982567Y-114549778D01*
X182518190Y-114907670D01*
X183150000Y-115033345D01*
X183781810Y-114907670D01*
X184317433Y-114549778D01*
X184420000Y-114396276D01*
X184522567Y-114549778D01*
X185058190Y-114907670D01*
X185690000Y-115033345D01*
X186321810Y-114907670D01*
X186857433Y-114549778D01*
X186960000Y-114396276D01*
X187062567Y-114549778D01*
X187598190Y-114907670D01*
X188230000Y-115033345D01*
X188861810Y-114907670D01*
X189397433Y-114549778D01*
X189500000Y-114396276D01*
X189602567Y-114549778D01*
X190138190Y-114907670D01*
X190770000Y-115033345D01*
X191401810Y-114907670D01*
X191937433Y-114549778D01*
X192040000Y-114396276D01*
X192142567Y-114549778D01*
X192678190Y-114907670D01*
X193310000Y-115033345D01*
X193941810Y-114907670D01*
X194477433Y-114549778D01*
X194580000Y-114396276D01*
X194682567Y-114549778D01*
X195218190Y-114907670D01*
X195850000Y-115033345D01*
X196481810Y-114907670D01*
X197017433Y-114549778D01*
X197120000Y-114396276D01*
X197222567Y-114549778D01*
X197758190Y-114907670D01*
X198390000Y-115033345D01*
X199021810Y-114907670D01*
X199557433Y-114549778D01*
X199915325Y-114014155D01*
X200001023Y-113583320D01*
X205096285Y-113583320D01*
X205225533Y-113876123D01*
X205925806Y-114144388D01*
X206675435Y-114124250D01*
X207274467Y-113876123D01*
X207403715Y-113583320D01*
X206250000Y-112429605D01*
X205096285Y-113583320D01*
X200001023Y-113583320D01*
X200041000Y-113382345D01*
X200041000Y-113317655D01*
X199915325Y-112685845D01*
X199557433Y-112150222D01*
X199221571Y-111925806D01*
X204355612Y-111925806D01*
X204375750Y-112675435D01*
X204623877Y-113274467D01*
X204916680Y-113403715D01*
X206070395Y-112250000D01*
X206429605Y-112250000D01*
X207583320Y-113403715D01*
X207876123Y-113274467D01*
X208144388Y-112574194D01*
X208124250Y-111824565D01*
X207876123Y-111225533D01*
X207583320Y-111096285D01*
X206429605Y-112250000D01*
X206070395Y-112250000D01*
X204916680Y-111096285D01*
X204623877Y-111225533D01*
X204355612Y-111925806D01*
X199221571Y-111925806D01*
X199021810Y-111792330D01*
X198390000Y-111666655D01*
X197758190Y-111792330D01*
X197222567Y-112150222D01*
X197120000Y-112303724D01*
X197017433Y-112150222D01*
X196481810Y-111792330D01*
X195850000Y-111666655D01*
X195218190Y-111792330D01*
X194682567Y-112150222D01*
X194580000Y-112303724D01*
X194477433Y-112150222D01*
X193941810Y-111792330D01*
X193310000Y-111666655D01*
X192678190Y-111792330D01*
X192142567Y-112150222D01*
X192040000Y-112303724D01*
X191937433Y-112150222D01*
X191401810Y-111792330D01*
X190770000Y-111666655D01*
X190138190Y-111792330D01*
X189602567Y-112150222D01*
X189500000Y-112303724D01*
X189397433Y-112150222D01*
X188861810Y-111792330D01*
X188230000Y-111666655D01*
X187598190Y-111792330D01*
X187062567Y-112150222D01*
X186960000Y-112303724D01*
X186857433Y-112150222D01*
X186321810Y-111792330D01*
X185690000Y-111666655D01*
X185058190Y-111792330D01*
X184522567Y-112150222D01*
X184420000Y-112303724D01*
X184317433Y-112150222D01*
X183781810Y-111792330D01*
X183150000Y-111666655D01*
X182518190Y-111792330D01*
X181982567Y-112150222D01*
X181880000Y-112303724D01*
X181777433Y-112150222D01*
X181241810Y-111792330D01*
X180610000Y-111666655D01*
X179978190Y-111792330D01*
X179442567Y-112150222D01*
X179084675Y-112685845D01*
X179000000Y-113111534D01*
X178915325Y-112685845D01*
X178557433Y-112150222D01*
X178021810Y-111792330D01*
X177390000Y-111666655D01*
X176758190Y-111792330D01*
X176222567Y-112150222D01*
X176120000Y-112303724D01*
X176017433Y-112150222D01*
X175481810Y-111792330D01*
X174850000Y-111666655D01*
X174218190Y-111792330D01*
X173682567Y-112150222D01*
X173580000Y-112303724D01*
X173477433Y-112150222D01*
X172941810Y-111792330D01*
X172310000Y-111666655D01*
X171678190Y-111792330D01*
X171142567Y-112150222D01*
X171040000Y-112303724D01*
X170937433Y-112150222D01*
X170401810Y-111792330D01*
X169770000Y-111666655D01*
X169138190Y-111792330D01*
X168602567Y-112150222D01*
X168500000Y-112303724D01*
X168397433Y-112150222D01*
X167861810Y-111792330D01*
X167230000Y-111666655D01*
X166598190Y-111792330D01*
X166062567Y-112150222D01*
X165960000Y-112303724D01*
X165857433Y-112150222D01*
X165321810Y-111792330D01*
X164690000Y-111666655D01*
X164058190Y-111792330D01*
X163522567Y-112150222D01*
X163420000Y-112303724D01*
X163317433Y-112150222D01*
X162781810Y-111792330D01*
X162150000Y-111666655D01*
X161518190Y-111792330D01*
X160982567Y-112150222D01*
X160880000Y-112303724D01*
X160777433Y-112150222D01*
X160241810Y-111792330D01*
X159610000Y-111666655D01*
X158978190Y-111792330D01*
X158442567Y-112150222D01*
X158084675Y-112685845D01*
X158000000Y-113111534D01*
X157915325Y-112685845D01*
X157557433Y-112150222D01*
X157021810Y-111792330D01*
X156390000Y-111666655D01*
X155758190Y-111792330D01*
X155222567Y-112150222D01*
X155120000Y-112303724D01*
X155017433Y-112150222D01*
X154481810Y-111792330D01*
X153850000Y-111666655D01*
X153218190Y-111792330D01*
X152682567Y-112150222D01*
X152580000Y-112303724D01*
X152477433Y-112150222D01*
X151941810Y-111792330D01*
X151310000Y-111666655D01*
X150678190Y-111792330D01*
X150142567Y-112150222D01*
X150040000Y-112303724D01*
X149937433Y-112150222D01*
X149401810Y-111792330D01*
X148770000Y-111666655D01*
X148138190Y-111792330D01*
X147602567Y-112150222D01*
X147500000Y-112303724D01*
X147397433Y-112150222D01*
X146861810Y-111792330D01*
X146230000Y-111666655D01*
X145598190Y-111792330D01*
X145062567Y-112150222D01*
X144960000Y-112303724D01*
X144857433Y-112150222D01*
X144321810Y-111792330D01*
X143690000Y-111666655D01*
X143058190Y-111792330D01*
X142522567Y-112150222D01*
X142420000Y-112303724D01*
X142317433Y-112150222D01*
X141781810Y-111792330D01*
X141150000Y-111666655D01*
X140518190Y-111792330D01*
X139982567Y-112150222D01*
X139880000Y-112303724D01*
X139777433Y-112150222D01*
X139241810Y-111792330D01*
X138610000Y-111666655D01*
X137978190Y-111792330D01*
X137442567Y-112150222D01*
X137084675Y-112685845D01*
X136959000Y-113317655D01*
X136959000Y-113382345D01*
X137084675Y-114014155D01*
X137442567Y-114549778D01*
X137978190Y-114907670D01*
X138610000Y-115033345D01*
X139241810Y-114907670D01*
X139777433Y-114549778D01*
X139880000Y-114396276D01*
X139982567Y-114549778D01*
X140518190Y-114907670D01*
X141150000Y-115033345D01*
X141781810Y-114907670D01*
X142317433Y-114549778D01*
X142420000Y-114396276D01*
X142522567Y-114549778D01*
X143058190Y-114907670D01*
X143690000Y-115033345D01*
X144321810Y-114907670D01*
X144857433Y-114549778D01*
X144960000Y-114396276D01*
X145062567Y-114549778D01*
X145598190Y-114907670D01*
X146230000Y-115033345D01*
X146861810Y-114907670D01*
X147397433Y-114549778D01*
X147500000Y-114396276D01*
X147602567Y-114549778D01*
X148138190Y-114907670D01*
X148770000Y-115033345D01*
X149401810Y-114907670D01*
X149937433Y-114549778D01*
X150040000Y-114396276D01*
X150142567Y-114549778D01*
X150678190Y-114907670D01*
X150796112Y-114931126D01*
X150568638Y-115158600D01*
X145200000Y-115158600D01*
X144801473Y-115237872D01*
X144463619Y-115463619D01*
X138355575Y-121571663D01*
X138075321Y-121627409D01*
X137541000Y-121984431D01*
X137006679Y-121627409D01*
X136306828Y-121488200D01*
X136235172Y-121488200D01*
X135535321Y-121627409D01*
X135001000Y-121984431D01*
X134466679Y-121627409D01*
X133766828Y-121488200D01*
X133695172Y-121488200D01*
X132995321Y-121627409D01*
X132402015Y-122023843D01*
X132005581Y-122617149D01*
X131866372Y-123317000D01*
X130964000Y-123317000D01*
X130964000Y-110916680D01*
X205096285Y-110916680D01*
X206250000Y-112070395D01*
X207403715Y-110916680D01*
X207274467Y-110623877D01*
X206574194Y-110355612D01*
X205824565Y-110375750D01*
X205225533Y-110623877D01*
X205096285Y-110916680D01*
X130964000Y-110916680D01*
X130964000Y-101970110D01*
X131591127Y-102598332D01*
X133151513Y-103246262D01*
X134841074Y-103247736D01*
X136402590Y-102602531D01*
X137086000Y-101920312D01*
X137086000Y-107810000D01*
X137202008Y-108393210D01*
X137387621Y-108671000D01*
X137532369Y-108887631D01*
X138722369Y-110077631D01*
X139216790Y-110407992D01*
X139800000Y-110524000D01*
X196500000Y-110524000D01*
X197083210Y-110407992D01*
X197577631Y-110077631D01*
X198881262Y-108774000D01*
X204748977Y-108774000D01*
X205036772Y-109062298D01*
X205822660Y-109388627D01*
X206673607Y-109389370D01*
X207460063Y-109064413D01*
X208062298Y-108463228D01*
X208388627Y-107677340D01*
X208389370Y-106826393D01*
X208064413Y-106039937D01*
X207463228Y-105437702D01*
X206677340Y-105111373D01*
X205826393Y-105110630D01*
X205039937Y-105435587D01*
X204749017Y-105726000D01*
X198250005Y-105726000D01*
X198250000Y-105725999D01*
X197666791Y-105842007D01*
X197172369Y-106172369D01*
X195868738Y-107476000D01*
X195632641Y-107476000D01*
X195723345Y-107020000D01*
X195597670Y-106388190D01*
X195239778Y-105852567D01*
X195086276Y-105750000D01*
X195239778Y-105647433D01*
X195597670Y-105111810D01*
X195723345Y-104480000D01*
X195597670Y-103848190D01*
X195239778Y-103312567D01*
X194704155Y-102954675D01*
X194072345Y-102829000D01*
X194007655Y-102829000D01*
X193375845Y-102954675D01*
X192840222Y-103312567D01*
X192770000Y-103417662D01*
X192699778Y-103312567D01*
X192164155Y-102954675D01*
X191532345Y-102829000D01*
X191467655Y-102829000D01*
X190835845Y-102954675D01*
X190300222Y-103312567D01*
X190230000Y-103417662D01*
X190159778Y-103312567D01*
X189624155Y-102954675D01*
X188992345Y-102829000D01*
X188927655Y-102829000D01*
X188295845Y-102954675D01*
X187760222Y-103312567D01*
X187402330Y-103848190D01*
X187276655Y-104480000D01*
X187402330Y-105111810D01*
X187760222Y-105647433D01*
X187913724Y-105750000D01*
X187760222Y-105852567D01*
X187402330Y-106388190D01*
X187276655Y-107020000D01*
X187367359Y-107476000D01*
X182134000Y-107476000D01*
X182134000Y-101578825D01*
X182435003Y-101850174D01*
X182806930Y-102004220D01*
X183023000Y-101881720D01*
X183023000Y-100777000D01*
X183003000Y-100777000D01*
X183003000Y-100523000D01*
X183023000Y-100523000D01*
X183023000Y-99418280D01*
X182806930Y-99295780D01*
X182435003Y-99449826D01*
X182030142Y-99814801D01*
X182026353Y-99822757D01*
X181777433Y-99450222D01*
X181241810Y-99092330D01*
X180610000Y-98966655D01*
X179978190Y-99092330D01*
X179442567Y-99450222D01*
X179084675Y-99985845D01*
X178959000Y-100617655D01*
X178959000Y-100682345D01*
X179084675Y-101314155D01*
X179086000Y-101316138D01*
X179086000Y-107476000D01*
X174632641Y-107476000D01*
X174723345Y-107020000D01*
X174597670Y-106388190D01*
X174239778Y-105852567D01*
X174086276Y-105750000D01*
X174239778Y-105647433D01*
X174597670Y-105111810D01*
X174723345Y-104480000D01*
X174597670Y-103848190D01*
X174239778Y-103312567D01*
X173704155Y-102954675D01*
X173072345Y-102829000D01*
X173007655Y-102829000D01*
X172375845Y-102954675D01*
X171840222Y-103312567D01*
X171770000Y-103417662D01*
X171699778Y-103312567D01*
X171164155Y-102954675D01*
X170532345Y-102829000D01*
X170467655Y-102829000D01*
X169835845Y-102954675D01*
X169300222Y-103312567D01*
X169230000Y-103417662D01*
X169159778Y-103312567D01*
X168624155Y-102954675D01*
X167992345Y-102829000D01*
X167927655Y-102829000D01*
X167295845Y-102954675D01*
X166760222Y-103312567D01*
X166402330Y-103848190D01*
X166276655Y-104480000D01*
X166402330Y-105111810D01*
X166760222Y-105647433D01*
X166913724Y-105750000D01*
X166760222Y-105852567D01*
X166402330Y-106388190D01*
X166276655Y-107020000D01*
X166367359Y-107476000D01*
X161134000Y-107476000D01*
X161134000Y-101578825D01*
X161435003Y-101850174D01*
X161806930Y-102004220D01*
X162023000Y-101881720D01*
X162023000Y-100777000D01*
X162003000Y-100777000D01*
X162003000Y-100523000D01*
X162023000Y-100523000D01*
X162023000Y-99418280D01*
X161806930Y-99295780D01*
X161435003Y-99449826D01*
X161030142Y-99814801D01*
X161026353Y-99822757D01*
X160777433Y-99450222D01*
X160241810Y-99092330D01*
X159610000Y-98966655D01*
X158978190Y-99092330D01*
X158442567Y-99450222D01*
X158084675Y-99985845D01*
X157959000Y-100617655D01*
X157959000Y-100682345D01*
X158084675Y-101314155D01*
X158086000Y-101316138D01*
X158086000Y-107476000D01*
X153632641Y-107476000D01*
X153723345Y-107020000D01*
X153597670Y-106388190D01*
X153239778Y-105852567D01*
X153086276Y-105750000D01*
X153239778Y-105647433D01*
X153597670Y-105111810D01*
X153723345Y-104480000D01*
X153597670Y-103848190D01*
X153239778Y-103312567D01*
X152704155Y-102954675D01*
X152072345Y-102829000D01*
X152007655Y-102829000D01*
X151375845Y-102954675D01*
X150840222Y-103312567D01*
X150770000Y-103417662D01*
X150699778Y-103312567D01*
X150164155Y-102954675D01*
X149532345Y-102829000D01*
X149467655Y-102829000D01*
X148835845Y-102954675D01*
X148300222Y-103312567D01*
X148230000Y-103417662D01*
X148159778Y-103312567D01*
X147624155Y-102954675D01*
X146992345Y-102829000D01*
X146927655Y-102829000D01*
X146295845Y-102954675D01*
X145760222Y-103312567D01*
X145402330Y-103848190D01*
X145276655Y-104480000D01*
X145402330Y-105111810D01*
X145760222Y-105647433D01*
X145913724Y-105750000D01*
X145760222Y-105852567D01*
X145402330Y-106388190D01*
X145276655Y-107020000D01*
X145367359Y-107476000D01*
X140431262Y-107476000D01*
X140134000Y-107178738D01*
X140134000Y-101578825D01*
X140435003Y-101850174D01*
X140806930Y-102004220D01*
X141023000Y-101881720D01*
X141023000Y-100777000D01*
X141003000Y-100777000D01*
X141003000Y-100523000D01*
X141023000Y-100523000D01*
X141023000Y-99418280D01*
X140806930Y-99295780D01*
X140435003Y-99449826D01*
X140030142Y-99814801D01*
X140026353Y-99822757D01*
X139777433Y-99450222D01*
X139241810Y-99092330D01*
X138610000Y-98966655D01*
X138246968Y-99038867D01*
X138247736Y-98158926D01*
X137602531Y-96597410D01*
X136970225Y-95964000D01*
X143561981Y-95964000D01*
X143168190Y-96042330D01*
X143168190Y-96042330D01*
G37*
X143168190Y-96042330D02*
X142632567Y-96400222D01*
X142274675Y-96935845D01*
X142149000Y-97567655D01*
X142149000Y-97632345D01*
X142166000Y-97717810D01*
X142166000Y-99721175D01*
X141864997Y-99449826D01*
X141493070Y-99295780D01*
X141277000Y-99418280D01*
X141277000Y-100523000D01*
X141297000Y-100523000D01*
X141297000Y-100777000D01*
X141277000Y-100777000D01*
X141277000Y-101881720D01*
X141493070Y-102004220D01*
X141864997Y-101850174D01*
X142269858Y-101485199D01*
X142273647Y-101477243D01*
X142522567Y-101849778D01*
X143058190Y-102207670D01*
X143690000Y-102333345D01*
X144321810Y-102207670D01*
X144857433Y-101849778D01*
X144960000Y-101696276D01*
X145062567Y-101849778D01*
X145598190Y-102207670D01*
X146230000Y-102333345D01*
X146861810Y-102207670D01*
X147397433Y-101849778D01*
X147500000Y-101696276D01*
X147602567Y-101849778D01*
X148138190Y-102207670D01*
X148770000Y-102333345D01*
X149401810Y-102207670D01*
X149937433Y-101849778D01*
X150040000Y-101696276D01*
X150142567Y-101849778D01*
X150678190Y-102207670D01*
X151310000Y-102333345D01*
X151941810Y-102207670D01*
X152477433Y-101849778D01*
X152580000Y-101696276D01*
X152682567Y-101849778D01*
X153218190Y-102207670D01*
X153850000Y-102333345D01*
X154481810Y-102207670D01*
X155017433Y-101849778D01*
X155266353Y-101477243D01*
X155270142Y-101485199D01*
X155675003Y-101850174D01*
X156046930Y-102004220D01*
X156263000Y-101881720D01*
X156263000Y-100777000D01*
X156517000Y-100777000D01*
X156517000Y-101881720D01*
X156733070Y-102004220D01*
X157104997Y-101850174D01*
X157509858Y-101485199D01*
X157744231Y-100993072D01*
X157622476Y-100777000D01*
X156517000Y-100777000D01*
X156263000Y-100777000D01*
X156243000Y-100777000D01*
X156243000Y-100523000D01*
X156263000Y-100523000D01*
X156263000Y-99418280D01*
X156517000Y-99418280D01*
X156517000Y-100523000D01*
X157622476Y-100523000D01*
X157744231Y-100306928D01*
X157509858Y-99814801D01*
X157104997Y-99449826D01*
X156733070Y-99295780D01*
X156517000Y-99418280D01*
X156263000Y-99418280D01*
X156046930Y-99295780D01*
X155675003Y-99449826D01*
X155270142Y-99814801D01*
X155266353Y-99822757D01*
X155017433Y-99450222D01*
X154481810Y-99092330D01*
X153850000Y-98966655D01*
X153218190Y-99092330D01*
X152834000Y-99349038D01*
X152834000Y-98430765D01*
X152945325Y-98264155D01*
X153071000Y-97632345D01*
X153071000Y-97567655D01*
X152945325Y-96935845D01*
X152587433Y-96400222D01*
X152051810Y-96042330D01*
X151658019Y-95964000D01*
X164561981Y-95964000D01*
X164168190Y-96042330D01*
X163632567Y-96400222D01*
X163274675Y-96935845D01*
X163149000Y-97567655D01*
X163149000Y-97632345D01*
X163166000Y-97717810D01*
X163166000Y-99721175D01*
X162864997Y-99449826D01*
X162493070Y-99295780D01*
X162277000Y-99418280D01*
X162277000Y-100523000D01*
X162297000Y-100523000D01*
X162297000Y-100777000D01*
X162277000Y-100777000D01*
X162277000Y-101881720D01*
X162493070Y-102004220D01*
X162864997Y-101850174D01*
X163269858Y-101485199D01*
X163273647Y-101477243D01*
X163522567Y-101849778D01*
X164058190Y-102207670D01*
X164690000Y-102333345D01*
X165321810Y-102207670D01*
X165857433Y-101849778D01*
X165960000Y-101696276D01*
X166062567Y-101849778D01*
X166598190Y-102207670D01*
X167230000Y-102333345D01*
X167861810Y-102207670D01*
X168397433Y-101849778D01*
X168500000Y-101696276D01*
X168602567Y-101849778D01*
X169138190Y-102207670D01*
X169770000Y-102333345D01*
X170401810Y-102207670D01*
X170937433Y-101849778D01*
X171040000Y-101696276D01*
X171142567Y-101849778D01*
X171678190Y-102207670D01*
X172310000Y-102333345D01*
X172941810Y-102207670D01*
X173477433Y-101849778D01*
X173580000Y-101696276D01*
X173682567Y-101849778D01*
X174218190Y-102207670D01*
X174850000Y-102333345D01*
X175481810Y-102207670D01*
X176017433Y-101849778D01*
X176266353Y-101477243D01*
X176270142Y-101485199D01*
X176675003Y-101850174D01*
X177046930Y-102004220D01*
X177263000Y-101881720D01*
X177263000Y-100777000D01*
X177517000Y-100777000D01*
X177517000Y-101881720D01*
X177733070Y-102004220D01*
X178104997Y-101850174D01*
X178509858Y-101485199D01*
X178744231Y-100993072D01*
X178622476Y-100777000D01*
X177517000Y-100777000D01*
X177263000Y-100777000D01*
X177243000Y-100777000D01*
X177243000Y-100523000D01*
X177263000Y-100523000D01*
X177263000Y-99418280D01*
X177517000Y-99418280D01*
X177517000Y-100523000D01*
X178622476Y-100523000D01*
X178744231Y-100306928D01*
X178509858Y-99814801D01*
X178104997Y-99449826D01*
X177733070Y-99295780D01*
X177517000Y-99418280D01*
X177263000Y-99418280D01*
X177046930Y-99295780D01*
X176675003Y-99449826D01*
X176270142Y-99814801D01*
X176266353Y-99822757D01*
X176017433Y-99450222D01*
X175481810Y-99092330D01*
X174850000Y-98966655D01*
X174218190Y-99092330D01*
X173834000Y-99349038D01*
X173834000Y-98430765D01*
X173945325Y-98264155D01*
X174071000Y-97632345D01*
X174071000Y-97567655D01*
X173945325Y-96935845D01*
X173587433Y-96400222D01*
X173051810Y-96042330D01*
X172658019Y-95964000D01*
X185561981Y-95964000D01*
X185168190Y-96042330D01*
X184632567Y-96400222D01*
X184274675Y-96935845D01*
X184149000Y-97567655D01*
X184149000Y-97632345D01*
X184166000Y-97717810D01*
X184166000Y-99721175D01*
X183864997Y-99449826D01*
X183493070Y-99295780D01*
X183277000Y-99418280D01*
X183277000Y-100523000D01*
X183297000Y-100523000D01*
X183297000Y-100777000D01*
X183277000Y-100777000D01*
X183277000Y-101881720D01*
X183493070Y-102004220D01*
X183864997Y-101850174D01*
X184269858Y-101485199D01*
X184273647Y-101477243D01*
X184522567Y-101849778D01*
X185058190Y-102207670D01*
X185690000Y-102333345D01*
X186321810Y-102207670D01*
X186857433Y-101849778D01*
X186960000Y-101696276D01*
X187062567Y-101849778D01*
X187598190Y-102207670D01*
X188230000Y-102333345D01*
X188861810Y-102207670D01*
X189397433Y-101849778D01*
X189500000Y-101696276D01*
X189602567Y-101849778D01*
X190138190Y-102207670D01*
X190770000Y-102333345D01*
X191401810Y-102207670D01*
X191937433Y-101849778D01*
X192040000Y-101696276D01*
X192142567Y-101849778D01*
X192678190Y-102207670D01*
X193310000Y-102333345D01*
X193941810Y-102207670D01*
X194477433Y-101849778D01*
X194580000Y-101696276D01*
X194682567Y-101849778D01*
X195218190Y-102207670D01*
X195850000Y-102333345D01*
X196481810Y-102207670D01*
X197017433Y-101849778D01*
X197266353Y-101477243D01*
X197270142Y-101485199D01*
X197675003Y-101850174D01*
X198046930Y-102004220D01*
X198263000Y-101881720D01*
X198263000Y-100777000D01*
X198517000Y-100777000D01*
X198517000Y-101881720D01*
X198733070Y-102004220D01*
X199104997Y-101850174D01*
X199509858Y-101485199D01*
X199744231Y-100993072D01*
X199622476Y-100777000D01*
X198517000Y-100777000D01*
X198263000Y-100777000D01*
X198243000Y-100777000D01*
X198243000Y-100523000D01*
X198263000Y-100523000D01*
X198263000Y-99418280D01*
X198517000Y-99418280D01*
X198517000Y-100523000D01*
X199622476Y-100523000D01*
X199744231Y-100306928D01*
X199509858Y-99814801D01*
X199104997Y-99449826D01*
X198733070Y-99295780D01*
X198517000Y-99418280D01*
X198263000Y-99418280D01*
X198046930Y-99295780D01*
X197675003Y-99449826D01*
X197270142Y-99814801D01*
X197266353Y-99822757D01*
X197017433Y-99450222D01*
X196481810Y-99092330D01*
X195850000Y-98966655D01*
X195218190Y-99092330D01*
X194834000Y-99349038D01*
X194834000Y-98430765D01*
X194945325Y-98264155D01*
X195071000Y-97632345D01*
X195071000Y-97567655D01*
X194945325Y-96935845D01*
X194587433Y-96400222D01*
X194051810Y-96042330D01*
X193658019Y-95964000D01*
X203029890Y-95964000D01*
X202401668Y-96591127D01*
X201753738Y-98151513D01*
X201752264Y-99841074D01*
X202397469Y-101402590D01*
X203591127Y-102598332D01*
X205151513Y-103246262D01*
X206841074Y-103247736D01*
X208402590Y-102602531D01*
X209036000Y-101970225D01*
X209036000Y-120905056D01*
X209015812Y-121006549D01*
X209012102Y-121012101D01*
X209006549Y-121015812D01*
X208905056Y-121036000D01*
X196000000Y-121036000D01*
X195906878Y-121054523D01*
X195811934Y-121054523D01*
X195429251Y-121130643D01*
X195429250Y-121130643D01*
X195081747Y-121274583D01*
X194757324Y-121491356D01*
X194491356Y-121757323D01*
X194491356Y-121757324D01*
X194274583Y-122081748D01*
X194130644Y-122429249D01*
X194130643Y-122429251D01*
X194054523Y-122811934D01*
X194054523Y-122906878D01*
X194036000Y-123000000D01*
X194036000Y-128905056D01*
X194015812Y-129006549D01*
X194012102Y-129012101D01*
X194006549Y-129015812D01*
X193905056Y-129036000D01*
X188017547Y-129036000D01*
X188157397Y-128896394D01*
X188338793Y-128459544D01*
X188339206Y-127986531D01*
X188158573Y-127549365D01*
X187824394Y-127214603D01*
X187405506Y-127040666D01*
X186344420Y-125979580D01*
X186014807Y-125759338D01*
X185950300Y-125746507D01*
X185626000Y-125682000D01*
X180077841Y-125682000D01*
X176878653Y-122482813D01*
X176949628Y-122126000D01*
X176810419Y-121426149D01*
X176413985Y-120832843D01*
X176180307Y-120676704D01*
X176429546Y-120405890D01*
X176494114Y-120250000D01*
X186816655Y-120250000D01*
X186942330Y-120881810D01*
X187300222Y-121417433D01*
X187453724Y-121520000D01*
X187300222Y-121622567D01*
X186942330Y-122158190D01*
X186816655Y-122790000D01*
X186942330Y-123421810D01*
X187300222Y-123957433D01*
X187835845Y-124315325D01*
X188467655Y-124441000D01*
X188532345Y-124441000D01*
X189164155Y-124315325D01*
X189699778Y-123957433D01*
X190000000Y-123508119D01*
X190300222Y-123957433D01*
X190835845Y-124315325D01*
X191467655Y-124441000D01*
X191532345Y-124441000D01*
X192164155Y-124315325D01*
X192699778Y-123957433D01*
X193057670Y-123421810D01*
X193183345Y-122790000D01*
X193057670Y-122158190D01*
X192699778Y-121622567D01*
X192546276Y-121520000D01*
X192699778Y-121417433D01*
X193057670Y-120881810D01*
X193183345Y-120250000D01*
X193057670Y-119618190D01*
X192699778Y-119082567D01*
X192164155Y-118724675D01*
X191532345Y-118599000D01*
X191467655Y-118599000D01*
X190835845Y-118724675D01*
X190300222Y-119082567D01*
X190000000Y-119531881D01*
X189699778Y-119082567D01*
X189164155Y-118724675D01*
X188532345Y-118599000D01*
X188467655Y-118599000D01*
X187835845Y-118724675D01*
X187300222Y-119082567D01*
X186942330Y-119618190D01*
X186816655Y-120250000D01*
X176494114Y-120250000D01*
X176615479Y-119956987D01*
X176495343Y-119713000D01*
X175212000Y-119713000D01*
X175212000Y-119733000D01*
X174958000Y-119733000D01*
X174958000Y-119713000D01*
X172672000Y-119713000D01*
X172672000Y-119733000D01*
X172418000Y-119733000D01*
X172418000Y-119713000D01*
X170132000Y-119713000D01*
X170132000Y-119733000D01*
X169878000Y-119733000D01*
X169878000Y-119713000D01*
X167592000Y-119713000D01*
X167592000Y-119733000D01*
X167338000Y-119733000D01*
X167338000Y-119713000D01*
X166054657Y-119713000D01*
X165934521Y-119956987D01*
X166120454Y-120405890D01*
X166369693Y-120676704D01*
X166136015Y-120832843D01*
X165739581Y-121426149D01*
X165600372Y-122126000D01*
X165739581Y-122825851D01*
X166136015Y-123419157D01*
X166269444Y-123508311D01*
X165939675Y-124001845D01*
X165814000Y-124633655D01*
X165814000Y-124698345D01*
X165939675Y-125330155D01*
X166297567Y-125865778D01*
X166747683Y-126166536D01*
X166345567Y-126435222D01*
X165987675Y-126970845D01*
X165862000Y-127602655D01*
X165862000Y-127667345D01*
X165987675Y-128299155D01*
X166345567Y-128834778D01*
X166646717Y-129036000D01*
X132094946Y-129036000D01*
X131610766Y-128939691D01*
X131280791Y-128719209D01*
X131060309Y-128389234D01*
X130964000Y-127905054D01*
X130964000Y-123317000D01*
X131866372Y-123317000D01*
X132005581Y-124016851D01*
X132386542Y-124587000D01*
X132005581Y-125157149D01*
X131866372Y-125857000D01*
X132005581Y-126556851D01*
X132402015Y-127150157D01*
X132995321Y-127546591D01*
X133695172Y-127685800D01*
X133766828Y-127685800D01*
X134466679Y-127546591D01*
X135001000Y-127189569D01*
X135535321Y-127546591D01*
X136235172Y-127685800D01*
X136306828Y-127685800D01*
X137006679Y-127546591D01*
X137541000Y-127189569D01*
X138075321Y-127546591D01*
X138775172Y-127685800D01*
X138846828Y-127685800D01*
X139546679Y-127546591D01*
X140081000Y-127189569D01*
X140615321Y-127546591D01*
X141315172Y-127685800D01*
X141386828Y-127685800D01*
X142086679Y-127546591D01*
X142679985Y-127150157D01*
X142807029Y-126960021D01*
X142962560Y-127129015D01*
X143520012Y-127387487D01*
X143764000Y-127267930D01*
X143764000Y-125984000D01*
X144018000Y-125984000D01*
X144018000Y-127267930D01*
X144261988Y-127387487D01*
X144819440Y-127129015D01*
X145235546Y-126676890D01*
X145421479Y-126227987D01*
X145301343Y-125984000D01*
X144018000Y-125984000D01*
X143764000Y-125984000D01*
X143744000Y-125984000D01*
X143744000Y-125730000D01*
X143764000Y-125730000D01*
X143764000Y-125710000D01*
X144018000Y-125710000D01*
X144018000Y-125730000D01*
X145301343Y-125730000D01*
X145421479Y-125486013D01*
X145235546Y-125037110D01*
X144986307Y-124766296D01*
X145219985Y-124610157D01*
X145616419Y-124016851D01*
X145755628Y-123317000D01*
X150154372Y-123317000D01*
X150293581Y-124016851D01*
X150674542Y-124587000D01*
X150293581Y-125157149D01*
X150154372Y-125857000D01*
X150293581Y-126556851D01*
X150690015Y-127150157D01*
X151283321Y-127546591D01*
X151983172Y-127685800D01*
X152054828Y-127685800D01*
X152754679Y-127546591D01*
X153289000Y-127189569D01*
X153823321Y-127546591D01*
X154523172Y-127685800D01*
X154594828Y-127685800D01*
X155294679Y-127546591D01*
X155887985Y-127150157D01*
X156015029Y-126960021D01*
X156170560Y-127129015D01*
X156728012Y-127387487D01*
X156972000Y-127267930D01*
X156972000Y-125984000D01*
X156952000Y-125984000D01*
X156952000Y-125730000D01*
X156972000Y-125730000D01*
X156972000Y-123444000D01*
X156952000Y-123444000D01*
X156952000Y-123190000D01*
X156972000Y-123190000D01*
X156972000Y-121906070D01*
X157226000Y-121906070D01*
X157226000Y-123190000D01*
X157246000Y-123190000D01*
X157246000Y-123444000D01*
X157226000Y-123444000D01*
X157226000Y-125730000D01*
X157246000Y-125730000D01*
X157246000Y-125984000D01*
X157226000Y-125984000D01*
X157226000Y-127267930D01*
X157469988Y-127387487D01*
X158027440Y-127129015D01*
X158182971Y-126960021D01*
X158310015Y-127150157D01*
X158903321Y-127546591D01*
X159603172Y-127685800D01*
X159674828Y-127685800D01*
X160374679Y-127546591D01*
X160967985Y-127150157D01*
X161364419Y-126556851D01*
X161503628Y-125857000D01*
X161364419Y-125157149D01*
X160983458Y-124587000D01*
X161364419Y-124016851D01*
X161503628Y-123317000D01*
X161364419Y-122617149D01*
X160967985Y-122023843D01*
X160374679Y-121627409D01*
X159674828Y-121488200D01*
X159603172Y-121488200D01*
X158903321Y-121627409D01*
X158310015Y-122023843D01*
X158182971Y-122213979D01*
X158027440Y-122044985D01*
X157469988Y-121786513D01*
X157226000Y-121906070D01*
X156972000Y-121906070D01*
X156728012Y-121786513D01*
X156170560Y-122044985D01*
X156015029Y-122213979D01*
X155887985Y-122023843D01*
X155294679Y-121627409D01*
X154594828Y-121488200D01*
X154523172Y-121488200D01*
X153823321Y-121627409D01*
X153289000Y-121984431D01*
X152754679Y-121627409D01*
X152054828Y-121488200D01*
X151983172Y-121488200D01*
X151283321Y-121627409D01*
X150690015Y-122023843D01*
X150293581Y-122617149D01*
X150154372Y-123317000D01*
X145755628Y-123317000D01*
X145616419Y-122617149D01*
X145219985Y-122023843D01*
X144626679Y-121627409D01*
X143926828Y-121488200D01*
X143855172Y-121488200D01*
X143155321Y-121627409D01*
X143125281Y-121647481D01*
X145557749Y-119215013D01*
X165934521Y-119215013D01*
X166054657Y-119459000D01*
X167338000Y-119459000D01*
X167338000Y-118175070D01*
X167592000Y-118175070D01*
X167592000Y-119459000D01*
X169878000Y-119459000D01*
X169878000Y-118175070D01*
X170132000Y-118175070D01*
X170132000Y-119459000D01*
X172418000Y-119459000D01*
X172418000Y-118175070D01*
X172672000Y-118175070D01*
X172672000Y-119459000D01*
X174958000Y-119459000D01*
X174958000Y-118175070D01*
X175212000Y-118175070D01*
X175212000Y-119459000D01*
X176495343Y-119459000D01*
X176615479Y-119215013D01*
X176429546Y-118766110D01*
X176013440Y-118313985D01*
X175455988Y-118055513D01*
X175212000Y-118175070D01*
X174958000Y-118175070D01*
X174714012Y-118055513D01*
X174156560Y-118313985D01*
X173815000Y-118685111D01*
X173473440Y-118313985D01*
X172915988Y-118055513D01*
X172672000Y-118175070D01*
X172418000Y-118175070D01*
X172174012Y-118055513D01*
X171616560Y-118313985D01*
X171275000Y-118685111D01*
X170933440Y-118313985D01*
X170375988Y-118055513D01*
X170132000Y-118175070D01*
X169878000Y-118175070D01*
X169634012Y-118055513D01*
X169076560Y-118313985D01*
X168735000Y-118685111D01*
X168393440Y-118313985D01*
X167835988Y-118055513D01*
X167592000Y-118175070D01*
X167338000Y-118175070D01*
X167094012Y-118055513D01*
X166536560Y-118313985D01*
X166120454Y-118766110D01*
X165934521Y-119215013D01*
X145557749Y-119215013D01*
X146531362Y-118241400D01*
X152540000Y-118241400D01*
X152938527Y-118162128D01*
X153276381Y-117936381D01*
X156214355Y-114998407D01*
X156390000Y-115033345D01*
X157021810Y-114907670D01*
X157557433Y-114549778D01*
X157915325Y-114014155D01*
X158000000Y-113588466D01*
X158084675Y-114014155D01*
X158442567Y-114549778D01*
X158978190Y-114907670D01*
X159610000Y-115033345D01*
X160241810Y-114907670D01*
X160777433Y-114549778D01*
X160880000Y-114396276D01*
X160982567Y-114549778D01*
X161518190Y-114907670D01*
X162150000Y-115033345D01*
X162781810Y-114907670D01*
X163317433Y-114549778D01*
X163420000Y-114396276D01*
X163522567Y-114549778D01*
X164058190Y-114907670D01*
X164690000Y-115033345D01*
X165321810Y-114907670D01*
X165857433Y-114549778D01*
X165960000Y-114396276D01*
X166062567Y-114549778D01*
X166598190Y-114907670D01*
X167230000Y-115033345D01*
X167861810Y-114907670D01*
X168397433Y-114549778D01*
X168500000Y-114396276D01*
X168602567Y-114549778D01*
X169138190Y-114907670D01*
X169770000Y-115033345D01*
X170401810Y-114907670D01*
X170937433Y-114549778D01*
X171040000Y-114396276D01*
X171142567Y-114549778D01*
X171678190Y-114907670D01*
X172310000Y-115033345D01*
X172941810Y-114907670D01*
X173477433Y-114549778D01*
X173580000Y-114396276D01*
X173682567Y-114549778D01*
X174218190Y-114907670D01*
X174850000Y-115033345D01*
X175481810Y-114907670D01*
X176017433Y-114549778D01*
X176120000Y-114396276D01*
X176222567Y-114549778D01*
X176758190Y-114907670D01*
X177390000Y-115033345D01*
X178021810Y-114907670D01*
X178557433Y-114549778D01*
X178915325Y-114014155D01*
X179000000Y-113588466D01*
X179084675Y-114014155D01*
X179442567Y-114549778D01*
X179978190Y-114907670D01*
X180610000Y-115033345D01*
X181241810Y-114907670D01*
X181777433Y-114549778D01*
X181880000Y-114396276D01*
X181982567Y-114549778D01*
X182518190Y-114907670D01*
X183150000Y-115033345D01*
X183781810Y-114907670D01*
X184317433Y-114549778D01*
X184420000Y-114396276D01*
X184522567Y-114549778D01*
X185058190Y-114907670D01*
X185690000Y-115033345D01*
X186321810Y-114907670D01*
X186857433Y-114549778D01*
X186960000Y-114396276D01*
X187062567Y-114549778D01*
X187598190Y-114907670D01*
X188230000Y-115033345D01*
X188861810Y-114907670D01*
X189397433Y-114549778D01*
X189500000Y-114396276D01*
X189602567Y-114549778D01*
X190138190Y-114907670D01*
X190770000Y-115033345D01*
X191401810Y-114907670D01*
X191937433Y-114549778D01*
X192040000Y-114396276D01*
X192142567Y-114549778D01*
X192678190Y-114907670D01*
X193310000Y-115033345D01*
X193941810Y-114907670D01*
X194477433Y-114549778D01*
X194580000Y-114396276D01*
X194682567Y-114549778D01*
X195218190Y-114907670D01*
X195850000Y-115033345D01*
X196481810Y-114907670D01*
X197017433Y-114549778D01*
X197120000Y-114396276D01*
X197222567Y-114549778D01*
X197758190Y-114907670D01*
X198390000Y-115033345D01*
X199021810Y-114907670D01*
X199557433Y-114549778D01*
X199915325Y-114014155D01*
X200001023Y-113583320D01*
X205096285Y-113583320D01*
X205225533Y-113876123D01*
X205925806Y-114144388D01*
X206675435Y-114124250D01*
X207274467Y-113876123D01*
X207403715Y-113583320D01*
X206250000Y-112429605D01*
X205096285Y-113583320D01*
X200001023Y-113583320D01*
X200041000Y-113382345D01*
X200041000Y-113317655D01*
X199915325Y-112685845D01*
X199557433Y-112150222D01*
X199221571Y-111925806D01*
X204355612Y-111925806D01*
X204375750Y-112675435D01*
X204623877Y-113274467D01*
X204916680Y-113403715D01*
X206070395Y-112250000D01*
X206429605Y-112250000D01*
X207583320Y-113403715D01*
X207876123Y-113274467D01*
X208144388Y-112574194D01*
X208124250Y-111824565D01*
X207876123Y-111225533D01*
X207583320Y-111096285D01*
X206429605Y-112250000D01*
X206070395Y-112250000D01*
X204916680Y-111096285D01*
X204623877Y-111225533D01*
X204355612Y-111925806D01*
X199221571Y-111925806D01*
X199021810Y-111792330D01*
X198390000Y-111666655D01*
X197758190Y-111792330D01*
X197222567Y-112150222D01*
X197120000Y-112303724D01*
X197017433Y-112150222D01*
X196481810Y-111792330D01*
X195850000Y-111666655D01*
X195218190Y-111792330D01*
X194682567Y-112150222D01*
X194580000Y-112303724D01*
X194477433Y-112150222D01*
X193941810Y-111792330D01*
X193310000Y-111666655D01*
X192678190Y-111792330D01*
X192142567Y-112150222D01*
X192040000Y-112303724D01*
X191937433Y-112150222D01*
X191401810Y-111792330D01*
X190770000Y-111666655D01*
X190138190Y-111792330D01*
X189602567Y-112150222D01*
X189500000Y-112303724D01*
X189397433Y-112150222D01*
X188861810Y-111792330D01*
X188230000Y-111666655D01*
X187598190Y-111792330D01*
X187062567Y-112150222D01*
X186960000Y-112303724D01*
X186857433Y-112150222D01*
X186321810Y-111792330D01*
X185690000Y-111666655D01*
X185058190Y-111792330D01*
X184522567Y-112150222D01*
X184420000Y-112303724D01*
X184317433Y-112150222D01*
X183781810Y-111792330D01*
X183150000Y-111666655D01*
X182518190Y-111792330D01*
X181982567Y-112150222D01*
X181880000Y-112303724D01*
X181777433Y-112150222D01*
X181241810Y-111792330D01*
X180610000Y-111666655D01*
X179978190Y-111792330D01*
X179442567Y-112150222D01*
X179084675Y-112685845D01*
X179000000Y-113111534D01*
X178915325Y-112685845D01*
X178557433Y-112150222D01*
X178021810Y-111792330D01*
X177390000Y-111666655D01*
X176758190Y-111792330D01*
X176222567Y-112150222D01*
X176120000Y-112303724D01*
X176017433Y-112150222D01*
X175481810Y-111792330D01*
X174850000Y-111666655D01*
X174218190Y-111792330D01*
X173682567Y-112150222D01*
X173580000Y-112303724D01*
X173477433Y-112150222D01*
X172941810Y-111792330D01*
X172310000Y-111666655D01*
X171678190Y-111792330D01*
X171142567Y-112150222D01*
X171040000Y-112303724D01*
X170937433Y-112150222D01*
X170401810Y-111792330D01*
X169770000Y-111666655D01*
X169138190Y-111792330D01*
X168602567Y-112150222D01*
X168500000Y-112303724D01*
X168397433Y-112150222D01*
X167861810Y-111792330D01*
X167230000Y-111666655D01*
X166598190Y-111792330D01*
X166062567Y-112150222D01*
X165960000Y-112303724D01*
X165857433Y-112150222D01*
X165321810Y-111792330D01*
X164690000Y-111666655D01*
X164058190Y-111792330D01*
X163522567Y-112150222D01*
X163420000Y-112303724D01*
X163317433Y-112150222D01*
X162781810Y-111792330D01*
X162150000Y-111666655D01*
X161518190Y-111792330D01*
X160982567Y-112150222D01*
X160880000Y-112303724D01*
X160777433Y-112150222D01*
X160241810Y-111792330D01*
X159610000Y-111666655D01*
X158978190Y-111792330D01*
X158442567Y-112150222D01*
X158084675Y-112685845D01*
X158000000Y-113111534D01*
X157915325Y-112685845D01*
X157557433Y-112150222D01*
X157021810Y-111792330D01*
X156390000Y-111666655D01*
X155758190Y-111792330D01*
X155222567Y-112150222D01*
X155120000Y-112303724D01*
X155017433Y-112150222D01*
X154481810Y-111792330D01*
X153850000Y-111666655D01*
X153218190Y-111792330D01*
X152682567Y-112150222D01*
X152580000Y-112303724D01*
X152477433Y-112150222D01*
X151941810Y-111792330D01*
X151310000Y-111666655D01*
X150678190Y-111792330D01*
X150142567Y-112150222D01*
X150040000Y-112303724D01*
X149937433Y-112150222D01*
X149401810Y-111792330D01*
X148770000Y-111666655D01*
X148138190Y-111792330D01*
X147602567Y-112150222D01*
X147500000Y-112303724D01*
X147397433Y-112150222D01*
X146861810Y-111792330D01*
X146230000Y-111666655D01*
X145598190Y-111792330D01*
X145062567Y-112150222D01*
X144960000Y-112303724D01*
X144857433Y-112150222D01*
X144321810Y-111792330D01*
X143690000Y-111666655D01*
X143058190Y-111792330D01*
X142522567Y-112150222D01*
X142420000Y-112303724D01*
X142317433Y-112150222D01*
X141781810Y-111792330D01*
X141150000Y-111666655D01*
X140518190Y-111792330D01*
X139982567Y-112150222D01*
X139880000Y-112303724D01*
X139777433Y-112150222D01*
X139241810Y-111792330D01*
X138610000Y-111666655D01*
X137978190Y-111792330D01*
X137442567Y-112150222D01*
X137084675Y-112685845D01*
X136959000Y-113317655D01*
X136959000Y-113382345D01*
X137084675Y-114014155D01*
X137442567Y-114549778D01*
X137978190Y-114907670D01*
X138610000Y-115033345D01*
X139241810Y-114907670D01*
X139777433Y-114549778D01*
X139880000Y-114396276D01*
X139982567Y-114549778D01*
X140518190Y-114907670D01*
X141150000Y-115033345D01*
X141781810Y-114907670D01*
X142317433Y-114549778D01*
X142420000Y-114396276D01*
X142522567Y-114549778D01*
X143058190Y-114907670D01*
X143690000Y-115033345D01*
X144321810Y-114907670D01*
X144857433Y-114549778D01*
X144960000Y-114396276D01*
X145062567Y-114549778D01*
X145598190Y-114907670D01*
X146230000Y-115033345D01*
X146861810Y-114907670D01*
X147397433Y-114549778D01*
X147500000Y-114396276D01*
X147602567Y-114549778D01*
X148138190Y-114907670D01*
X148770000Y-115033345D01*
X149401810Y-114907670D01*
X149937433Y-114549778D01*
X150040000Y-114396276D01*
X150142567Y-114549778D01*
X150678190Y-114907670D01*
X150796112Y-114931126D01*
X150568638Y-115158600D01*
X145200000Y-115158600D01*
X144801473Y-115237872D01*
X144463619Y-115463619D01*
X138355575Y-121571663D01*
X138075321Y-121627409D01*
X137541000Y-121984431D01*
X137006679Y-121627409D01*
X136306828Y-121488200D01*
X136235172Y-121488200D01*
X135535321Y-121627409D01*
X135001000Y-121984431D01*
X134466679Y-121627409D01*
X133766828Y-121488200D01*
X133695172Y-121488200D01*
X132995321Y-121627409D01*
X132402015Y-122023843D01*
X132005581Y-122617149D01*
X131866372Y-123317000D01*
X130964000Y-123317000D01*
X130964000Y-110916680D01*
X205096285Y-110916680D01*
X206250000Y-112070395D01*
X207403715Y-110916680D01*
X207274467Y-110623877D01*
X206574194Y-110355612D01*
X205824565Y-110375750D01*
X205225533Y-110623877D01*
X205096285Y-110916680D01*
X130964000Y-110916680D01*
X130964000Y-101970110D01*
X131591127Y-102598332D01*
X133151513Y-103246262D01*
X134841074Y-103247736D01*
X136402590Y-102602531D01*
X137086000Y-101920312D01*
X137086000Y-107810000D01*
X137202008Y-108393210D01*
X137387621Y-108671000D01*
X137532369Y-108887631D01*
X138722369Y-110077631D01*
X139216790Y-110407992D01*
X139800000Y-110524000D01*
X196500000Y-110524000D01*
X197083210Y-110407992D01*
X197577631Y-110077631D01*
X198881262Y-108774000D01*
X204748977Y-108774000D01*
X205036772Y-109062298D01*
X205822660Y-109388627D01*
X206673607Y-109389370D01*
X207460063Y-109064413D01*
X208062298Y-108463228D01*
X208388627Y-107677340D01*
X208389370Y-106826393D01*
X208064413Y-106039937D01*
X207463228Y-105437702D01*
X206677340Y-105111373D01*
X205826393Y-105110630D01*
X205039937Y-105435587D01*
X204749017Y-105726000D01*
X198250005Y-105726000D01*
X198250000Y-105725999D01*
X197666791Y-105842007D01*
X197172369Y-106172369D01*
X195868738Y-107476000D01*
X195632641Y-107476000D01*
X195723345Y-107020000D01*
X195597670Y-106388190D01*
X195239778Y-105852567D01*
X195086276Y-105750000D01*
X195239778Y-105647433D01*
X195597670Y-105111810D01*
X195723345Y-104480000D01*
X195597670Y-103848190D01*
X195239778Y-103312567D01*
X194704155Y-102954675D01*
X194072345Y-102829000D01*
X194007655Y-102829000D01*
X193375845Y-102954675D01*
X192840222Y-103312567D01*
X192770000Y-103417662D01*
X192699778Y-103312567D01*
X192164155Y-102954675D01*
X191532345Y-102829000D01*
X191467655Y-102829000D01*
X190835845Y-102954675D01*
X190300222Y-103312567D01*
X190230000Y-103417662D01*
X190159778Y-103312567D01*
X189624155Y-102954675D01*
X188992345Y-102829000D01*
X188927655Y-102829000D01*
X188295845Y-102954675D01*
X187760222Y-103312567D01*
X187402330Y-103848190D01*
X187276655Y-104480000D01*
X187402330Y-105111810D01*
X187760222Y-105647433D01*
X187913724Y-105750000D01*
X187760222Y-105852567D01*
X187402330Y-106388190D01*
X187276655Y-107020000D01*
X187367359Y-107476000D01*
X182134000Y-107476000D01*
X182134000Y-101578825D01*
X182435003Y-101850174D01*
X182806930Y-102004220D01*
X183023000Y-101881720D01*
X183023000Y-100777000D01*
X183003000Y-100777000D01*
X183003000Y-100523000D01*
X183023000Y-100523000D01*
X183023000Y-99418280D01*
X182806930Y-99295780D01*
X182435003Y-99449826D01*
X182030142Y-99814801D01*
X182026353Y-99822757D01*
X181777433Y-99450222D01*
X181241810Y-99092330D01*
X180610000Y-98966655D01*
X179978190Y-99092330D01*
X179442567Y-99450222D01*
X179084675Y-99985845D01*
X178959000Y-100617655D01*
X178959000Y-100682345D01*
X179084675Y-101314155D01*
X179086000Y-101316138D01*
X179086000Y-107476000D01*
X174632641Y-107476000D01*
X174723345Y-107020000D01*
X174597670Y-106388190D01*
X174239778Y-105852567D01*
X174086276Y-105750000D01*
X174239778Y-105647433D01*
X174597670Y-105111810D01*
X174723345Y-104480000D01*
X174597670Y-103848190D01*
X174239778Y-103312567D01*
X173704155Y-102954675D01*
X173072345Y-102829000D01*
X173007655Y-102829000D01*
X172375845Y-102954675D01*
X171840222Y-103312567D01*
X171770000Y-103417662D01*
X171699778Y-103312567D01*
X171164155Y-102954675D01*
X170532345Y-102829000D01*
X170467655Y-102829000D01*
X169835845Y-102954675D01*
X169300222Y-103312567D01*
X169230000Y-103417662D01*
X169159778Y-103312567D01*
X168624155Y-102954675D01*
X167992345Y-102829000D01*
X167927655Y-102829000D01*
X167295845Y-102954675D01*
X166760222Y-103312567D01*
X166402330Y-103848190D01*
X166276655Y-104480000D01*
X166402330Y-105111810D01*
X166760222Y-105647433D01*
X166913724Y-105750000D01*
X166760222Y-105852567D01*
X166402330Y-106388190D01*
X166276655Y-107020000D01*
X166367359Y-107476000D01*
X161134000Y-107476000D01*
X161134000Y-101578825D01*
X161435003Y-101850174D01*
X161806930Y-102004220D01*
X162023000Y-101881720D01*
X162023000Y-100777000D01*
X162003000Y-100777000D01*
X162003000Y-100523000D01*
X162023000Y-100523000D01*
X162023000Y-99418280D01*
X161806930Y-99295780D01*
X161435003Y-99449826D01*
X161030142Y-99814801D01*
X161026353Y-99822757D01*
X160777433Y-99450222D01*
X160241810Y-99092330D01*
X159610000Y-98966655D01*
X158978190Y-99092330D01*
X158442567Y-99450222D01*
X158084675Y-99985845D01*
X157959000Y-100617655D01*
X157959000Y-100682345D01*
X158084675Y-101314155D01*
X158086000Y-101316138D01*
X158086000Y-107476000D01*
X153632641Y-107476000D01*
X153723345Y-107020000D01*
X153597670Y-106388190D01*
X153239778Y-105852567D01*
X153086276Y-105750000D01*
X153239778Y-105647433D01*
X153597670Y-105111810D01*
X153723345Y-104480000D01*
X153597670Y-103848190D01*
X153239778Y-103312567D01*
X152704155Y-102954675D01*
X152072345Y-102829000D01*
X152007655Y-102829000D01*
X151375845Y-102954675D01*
X150840222Y-103312567D01*
X150770000Y-103417662D01*
X150699778Y-103312567D01*
X150164155Y-102954675D01*
X149532345Y-102829000D01*
X149467655Y-102829000D01*
X148835845Y-102954675D01*
X148300222Y-103312567D01*
X148230000Y-103417662D01*
X148159778Y-103312567D01*
X147624155Y-102954675D01*
X146992345Y-102829000D01*
X146927655Y-102829000D01*
X146295845Y-102954675D01*
X145760222Y-103312567D01*
X145402330Y-103848190D01*
X145276655Y-104480000D01*
X145402330Y-105111810D01*
X145760222Y-105647433D01*
X145913724Y-105750000D01*
X145760222Y-105852567D01*
X145402330Y-106388190D01*
X145276655Y-107020000D01*
X145367359Y-107476000D01*
X140431262Y-107476000D01*
X140134000Y-107178738D01*
X140134000Y-101578825D01*
X140435003Y-101850174D01*
X140806930Y-102004220D01*
X141023000Y-101881720D01*
X141023000Y-100777000D01*
X141003000Y-100777000D01*
X141003000Y-100523000D01*
X141023000Y-100523000D01*
X141023000Y-99418280D01*
X140806930Y-99295780D01*
X140435003Y-99449826D01*
X140030142Y-99814801D01*
X140026353Y-99822757D01*
X139777433Y-99450222D01*
X139241810Y-99092330D01*
X138610000Y-98966655D01*
X138246968Y-99038867D01*
X138247736Y-98158926D01*
X137602531Y-96597410D01*
X136970225Y-95964000D01*
X143561981Y-95964000D01*
X143168190Y-96042330D01*
G36*
X178938579Y-127416420D02*
X179069022Y-127503579D01*
X179268194Y-127636662D01*
X179657000Y-127714000D01*
X185205160Y-127714000D01*
X185969360Y-128478201D01*
X186141427Y-128894635D01*
X186282546Y-129036000D01*
X175999283Y-129036000D01*
X176300433Y-128834778D01*
X176658325Y-128299155D01*
X176784000Y-127667345D01*
X176784000Y-127602655D01*
X176658325Y-126970845D01*
X176300433Y-126435222D01*
X175850317Y-126134464D01*
X176252433Y-125865778D01*
X176610325Y-125330155D01*
X176650474Y-125128314D01*
X178938579Y-127416420D01*
X178938579Y-127416420D01*
G37*
X178938579Y-127416420D02*
X179069022Y-127503579D01*
X179268194Y-127636662D01*
X179657000Y-127714000D01*
X185205160Y-127714000D01*
X185969360Y-128478201D01*
X186141427Y-128894635D01*
X186282546Y-129036000D01*
X175999283Y-129036000D01*
X176300433Y-128834778D01*
X176658325Y-128299155D01*
X176784000Y-127667345D01*
X176784000Y-127602655D01*
X176658325Y-126970845D01*
X176300433Y-126435222D01*
X175850317Y-126134464D01*
X176252433Y-125865778D01*
X176610325Y-125330155D01*
X176650474Y-125128314D01*
X178938579Y-127416420D01*
M02*
